<svg width="359" height="122" fill="none" xmlns="http://www.w3.org/2000/svg"><g filter="url(#filter0_b)"><rect width="359" height="122" rx="12" fill="#fff" fill-opacity=".5"/><path fill-rule="evenodd" clip-rule="evenodd" d="M12 12h335v20H12V12z" fill="#fff" fill-opacity=".01"/><path d="M323.102 27h1.092v-4.05c0-1.2.705-1.93 1.797-1.93 1.091 0 1.612.585 1.612 1.816V27h1.092v-4.43c0-1.626-.857-2.533-2.393-2.533-1.048 0-1.714.444-2.057 1.2h-.102v-1.08h-1.041V27zm10.324.12c1.949 0 3.155-1.345 3.155-3.541 0-2.203-1.206-3.542-3.155-3.542-1.949 0-3.155 1.339-3.155 3.542 0 2.196 1.206 3.542 3.155 3.542zm0-.983c-1.295 0-2.025-.94-2.025-2.558 0-1.625.73-2.559 2.025-2.559s2.025.934 2.025 2.559c0 1.618-.73 2.558-2.025 2.558zm13.142-5.98h-1.098l-1.345 5.472h-.102l-1.53-5.472h-1.047l-1.53 5.472h-.102l-1.345-5.472h-1.105L339.281 27h1.105l1.523-5.294h.102l1.53 5.294h1.11l1.917-6.843z" fill="#000" fill-opacity=".05" style="mix-blend-mode:hard-light"/><path d="M323.102 27h1.092v-4.05c0-1.2.705-1.93 1.797-1.93 1.091 0 1.612.585 1.612 1.816V27h1.092v-4.43c0-1.626-.857-2.533-2.393-2.533-1.048 0-1.714.444-2.057 1.2h-.102v-1.08h-1.041V27zm10.324.12c1.949 0 3.155-1.345 3.155-3.541 0-2.203-1.206-3.542-3.155-3.542-1.949 0-3.155 1.339-3.155 3.542 0 2.196 1.206 3.542 3.155 3.542zm0-.983c-1.295 0-2.025-.94-2.025-2.558 0-1.625.73-2.559 2.025-2.559s2.025.934 2.025 2.559c0 1.618-.73 2.558-2.025 2.558zm13.142-5.98h-1.098l-1.345 5.472h-.102l-1.53-5.472h-1.047l-1.53 5.472h-.102l-1.345-5.472h-1.105L339.281 27h1.105l1.523-5.294h.102l1.53 5.294h1.11l1.917-6.843z" fill="#3F3F3F" style="mix-blend-mode:color-burn"/><path d="M43.856 27.216c1.949 0 3.396-1.086 3.7-2.768h-1.161c-.292 1.06-1.263 1.714-2.539 1.714-1.765 0-2.87-1.44-2.87-3.739 0-2.297 1.105-3.745 2.864-3.745 1.263 0 2.24.743 2.545 1.924h1.162c-.273-1.765-1.778-2.977-3.707-2.977-2.489 0-4.038 1.84-4.038 4.798 0 2.952 1.556 4.793 4.044 4.793zm9.384-9.591c-2.59 0-4.202 1.847-4.202 4.792 0 2.933 1.574 4.799 4.202 4.799 2.615 0 4.203-1.873 4.203-4.799 0-2.939-1.6-4.793-4.203-4.793zm0 1.053c1.873 0 3.028 1.447 3.028 3.739 0 2.272-1.149 3.745-3.028 3.745-1.904 0-3.028-1.473-3.028-3.745 0-2.292 1.162-3.739 3.028-3.739zM62.802 27l3.377-9.16h-1.2l-2.69 7.681h-.102l-2.692-7.68h-1.2L61.673 27h1.13zm6.046 0v-9.16h-1.143V27h1.143zm2.256-9.16V27h3.142c2.723 0 4.323-1.695 4.323-4.583 0-2.882-1.606-4.577-4.323-4.577h-3.142zm1.142 1.029h1.924c2.031 0 3.23 1.32 3.23 3.56 0 2.235-1.186 3.543-3.23 3.543h-1.924v-7.103zm11.374 5.738c.12 1.58 1.46 2.609 3.402 2.609 2.095 0 3.422-1.073 3.422-2.755 0-1.346-.762-2.082-2.66-2.558l-.958-.254c-1.263-.324-1.765-.736-1.765-1.454 0-.926.806-1.536 2.025-1.536 1.142 0 1.917.559 2.076 1.498h1.148c-.095-1.479-1.415-2.532-3.186-2.532-1.936 0-3.237 1.053-3.237 2.608 0 1.302.717 2.05 2.374 2.47l1.174.304c1.263.318 1.834.813 1.834 1.594 0 .907-.907 1.574-2.139 1.574-1.3 0-2.215-.61-2.355-1.568H83.62zM99.58 27v-9.16h-1.142v3.961h-5.027v-3.96h-1.143V27h1.143v-4.17h5.027V27h1.143zm3.399 0v-9.16h-1.142V27h1.142zm7.931-1.028h-4.532v-3.149h4.297v-1.015h-4.297v-2.94h4.532V17.84h-5.675V27h5.675v-1.028zm7.55 0h-4.418V17.84h-1.143V27h5.561v-1.028zm1.748-8.132V27h3.142c2.723 0 4.323-1.695 4.323-4.583 0-2.882-1.606-4.577-4.323-4.577h-3.142zm1.142 1.029h1.924c2.031 0 3.231 1.32 3.231 3.56 0 2.235-1.187 3.543-3.231 3.543h-1.924v-7.103z" fill="#000" fill-opacity=".05" style="mix-blend-mode:hard-light"/><path d="M43.856 27.216c1.949 0 3.396-1.086 3.7-2.768h-1.161c-.292 1.06-1.263 1.714-2.539 1.714-1.765 0-2.87-1.44-2.87-3.739 0-2.297 1.105-3.745 2.864-3.745 1.263 0 2.24.743 2.545 1.924h1.162c-.273-1.765-1.778-2.977-3.707-2.977-2.489 0-4.038 1.84-4.038 4.798 0 2.952 1.556 4.793 4.044 4.793zm9.384-9.591c-2.59 0-4.202 1.847-4.202 4.792 0 2.933 1.574 4.799 4.202 4.799 2.615 0 4.203-1.873 4.203-4.799 0-2.939-1.6-4.793-4.203-4.793zm0 1.053c1.873 0 3.028 1.447 3.028 3.739 0 2.272-1.149 3.745-3.028 3.745-1.904 0-3.028-1.473-3.028-3.745 0-2.292 1.162-3.739 3.028-3.739zM62.802 27l3.377-9.16h-1.2l-2.69 7.681h-.102l-2.692-7.68h-1.2L61.673 27h1.13zm6.046 0v-9.16h-1.143V27h1.143zm2.256-9.16V27h3.142c2.723 0 4.323-1.695 4.323-4.583 0-2.882-1.606-4.577-4.323-4.577h-3.142zm1.142 1.029h1.924c2.031 0 3.23 1.32 3.23 3.56 0 2.235-1.186 3.543-3.23 3.543h-1.924v-7.103zm11.374 5.738c.12 1.58 1.46 2.609 3.402 2.609 2.095 0 3.422-1.073 3.422-2.755 0-1.346-.762-2.082-2.66-2.558l-.958-.254c-1.263-.324-1.765-.736-1.765-1.454 0-.926.806-1.536 2.025-1.536 1.142 0 1.917.559 2.076 1.498h1.148c-.095-1.479-1.415-2.532-3.186-2.532-1.936 0-3.237 1.053-3.237 2.608 0 1.302.717 2.05 2.374 2.47l1.174.304c1.263.318 1.834.813 1.834 1.594 0 .907-.907 1.574-2.139 1.574-1.3 0-2.215-.61-2.355-1.568H83.62zM99.58 27v-9.16h-1.142v3.961h-5.027v-3.96h-1.143V27h1.143v-4.17h5.027V27h1.143zm3.399 0v-9.16h-1.142V27h1.142zm7.931-1.028h-4.532v-3.149h4.297v-1.015h-4.297v-2.94h4.532V17.84h-5.675V27h5.675v-1.028zm7.55 0h-4.418V17.84h-1.143V27h5.561v-1.028zm1.748-8.132V27h3.142c2.723 0 4.323-1.695 4.323-4.583 0-2.882-1.606-4.577-4.323-4.577h-3.142zm1.142 1.029h1.924c2.031 0 3.231 1.32 3.231 3.56 0 2.235-1.187 3.543-3.231 3.543h-1.924v-7.103z" fill="#3F3F3F" style="mix-blend-mode:color-burn"/><rect x="12" y="12" width="20" height="20" rx="5" fill="#fff"/><rect x="12" y="12" width="20" height="20" rx="5" fill="#fff"/><path d="M22 13.818l-7.273 1.818v5.455c0 5.454 7.272 9.09 7.272 9.09s7.273-3.636 7.273-9.09v-5.455l-7.273-1.818z" fill="#15A3A6"/><path fill-rule="evenodd" clip-rule="evenodd" d="M19.273 21.09a2.727 2.727 0 015.067-1.402l1.559-.936a4.545 4.545 0 100 4.678l-1.56-.936a2.727 2.727 0 01-5.066-1.403z" fill="#fff"/><path d="M18.116 49v-4.167l3.706-6.402h-2.073l-2.512 4.534h-.125l-2.52-4.534H12.52l3.706 6.402V49h1.89zm7.194.161c2.395 0 3.852-1.567 3.852-4.167 0-2.586-1.464-4.153-3.852-4.153-2.38 0-3.853 1.575-3.853 4.153 0 2.6 1.45 4.167 3.853 4.167zm0-1.487c-1.267 0-1.992-.981-1.992-2.673 0-1.692.725-2.673 1.992-2.673 1.26 0 1.985.981 1.985 2.673 0 1.692-.718 2.673-1.985 2.673zm12.416-6.68H35.91v4.666c0 1.209-.645 1.941-1.824 1.941-1.084 0-1.59-.6-1.59-1.846v-4.76H30.68v5.2c0 1.875 1.026 2.966 2.776 2.966 1.223 0 2.007-.52 2.395-1.435h.125V49h1.75v-8.005zM43.545 49h1.816v-4.65c0-1.173.667-1.956 1.86-1.956 1.055 0 1.612.63 1.612 1.867V49h1.816v-5.164c0-1.904-1.04-2.988-2.754-2.988-1.193 0-2.05.542-2.431 1.443h-.132v-4.394h-1.787V49zm11.222.132c1.048 0 1.927-.454 2.373-1.23h.125V49h1.75v-5.471c0-1.692-1.157-2.688-3.215-2.688-1.904 0-3.23.893-3.377 2.292h1.714c.169-.549.74-.85 1.575-.85.982 0 1.509.447 1.509 1.246v.688l-2.065.125c-1.949.11-3.04.952-3.04 2.388 0 1.464 1.106 2.402 2.651 2.402zm.535-1.4c-.806 0-1.384-.402-1.384-1.09 0-.667.476-1.04 1.494-1.106l1.809-.125v.652c0 .952-.82 1.67-1.919 1.67zm12.402-6.737h-1.92l-1.838 6.225h-.124l-1.853-6.225H60.02L62.87 49h2l2.834-8.005zm6.198 5.815c-.264.6-.887.938-1.788.938-1.193 0-1.963-.85-2.006-2.205v-.095h5.595v-.579c0-2.512-1.37-4.028-3.654-4.028-2.322 0-3.765 1.618-3.765 4.19 0 2.563 1.42 4.13 3.78 4.13 1.889 0 3.23-.908 3.559-2.35H73.9zm-1.86-4.556c1.09 0 1.808.77 1.845 1.985h-3.772c.08-1.2.842-1.985 1.926-1.985zm13.37-1.391c-1.1 0-2.03.55-2.49 1.457h-.126v-1.325h-1.75v10.664h1.816v-3.875h.125c.41.85 1.296 1.348 2.446 1.348 2.022 0 3.281-1.59 3.281-4.131 0-2.563-1.274-4.138-3.303-4.138zm-.572 6.76c-1.238 0-2.007-1.003-2.014-2.622.007-1.619.784-2.622 2.021-2.622 1.245 0 2 .981 2 2.622 0 1.64-.747 2.622-2.007 2.622zm8.915 1.538c2.395 0 3.853-1.567 3.853-4.167 0-2.586-1.465-4.153-3.853-4.153-2.38 0-3.852 1.575-3.852 4.153 0 2.6 1.45 4.167 3.852 4.167zm0-1.487c-1.267 0-1.992-.981-1.992-2.673 0-1.692.725-2.673 1.992-2.673 1.26 0 1.985.981 1.985 2.673 0 1.692-.718 2.673-1.985 2.673zm5.26-4.394c0 1.201.726 1.904 2.264 2.256l1.421.33c.762.175 1.106.468 1.106.922 0 .608-.637 1.026-1.553 1.026-.908 0-1.472-.367-1.648-.96h-1.794c.139 1.443 1.399 2.307 3.398 2.307 2 0 3.413-1.018 3.413-2.549 0-1.179-.71-1.83-2.241-2.182l-1.414-.315c-.805-.19-1.186-.476-1.186-.93 0-.594.622-.997 1.45-.997.85 0 1.384.367 1.516.93h1.707c-.132-1.442-1.326-2.277-3.23-2.277-1.89 0-3.208 1.003-3.208 2.439zm7.876 0c0 1.201.725 1.904 2.263 2.256l1.421.33c.762.175 1.106.468 1.106.922 0 .608-.637 1.026-1.553 1.026-.908 0-1.472-.367-1.648-.96h-1.794c.139 1.443 1.399 2.307 3.398 2.307 2 0 3.413-1.018 3.413-2.549 0-1.179-.71-1.83-2.241-2.182l-1.413-.315c-.806-.19-1.187-.476-1.187-.93 0-.594.623-.997 1.45-.997.85 0 1.385.367 1.516.93h1.707c-.132-1.442-1.326-2.277-3.23-2.277-1.89 0-3.208 1.003-3.208 2.439zm9.128-3.626c.6 0 1.091-.476 1.091-1.076 0-.594-.491-1.077-1.091-1.077-.594 0-1.084.483-1.084 1.077 0 .6.49 1.076 1.084 1.076zM115.118 49h1.809v-8.005h-1.809V49zm8.278.132c2.021 0 3.288-1.59 3.288-4.131 0-2.556-1.259-4.138-3.288-4.138-1.099 0-2.022.535-2.439 1.406h-.125v-4.372h-1.816V49h1.75v-1.267h.125c.454.879 1.384 1.399 2.505 1.399zm-.571-6.753c1.237 0 1.992.989 1.992 2.622s-.747 2.622-1.992 2.622c-1.246 0-2.022-1.003-2.022-2.622s.784-2.622 2.022-2.622zM128.341 49h1.817V37.897h-1.817V49zm4.756 2.9c1.794 0 2.651-.651 3.332-2.622l2.893-8.283h-1.919l-1.868 6.284h-.124l-1.875-6.284h-1.992l2.864 8.034-.096.374c-.234.754-.666 1.047-1.435 1.047-.125 0-.396-.007-.498-.022v1.443c.117.022.608.03.718.03zm15.765-2.768c2.021 0 3.288-1.59 3.288-4.131 0-2.556-1.26-4.138-3.288-4.138-1.099 0-2.022.535-2.439 1.406h-.125v-4.372h-1.816V49h1.75v-1.267h.125c.454.879 1.384 1.399 2.505 1.399zm-.572-6.753c1.238 0 1.993.989 1.993 2.622s-.748 2.622-1.993 2.622-2.021-1.003-2.021-2.622.784-2.622 2.021-2.622zm10.666 4.431c-.264.6-.886.938-1.787.938-1.194 0-1.963-.85-2.007-2.205v-.095h5.596v-.579c0-2.512-1.37-4.028-3.655-4.028-2.322 0-3.765 1.618-3.765 4.19 0 2.563 1.421 4.13 3.78 4.13 1.889 0 3.23-.908 3.559-2.35h-1.721zm-1.86-4.556c1.091 0 1.809.77 1.845 1.985h-3.772c.081-1.2.843-1.985 1.927-1.985zm10.468 4.556c-.264.6-.886.938-1.787.938-1.194 0-1.963-.85-2.007-2.205v-.095h5.596v-.579c0-2.512-1.37-4.028-3.655-4.028-2.322 0-3.765 1.618-3.765 4.19 0 2.563 1.421 4.13 3.779 4.13 1.89 0 3.23-.908 3.56-2.35h-1.721zm-1.861-4.556c1.092 0 1.809.77 1.846 1.985h-3.772c.081-1.2.842-1.985 1.926-1.985zM170.949 49h1.817v-4.666c0-1.2.681-1.955 1.765-1.955 1.106 0 1.618.623 1.618 1.868V49h1.817v-5.178c0-1.905-.974-2.981-2.761-2.981-1.194 0-2 .542-2.381 1.435h-.124v-1.281h-1.751V49zm17.911-2.19c-.263.6-.886.938-1.787.938-1.194 0-1.963-.85-2.007-2.205v-.095h5.596v-.579c0-2.512-1.37-4.028-3.655-4.028-2.321 0-3.764 1.618-3.764 4.19 0 2.563 1.421 4.13 3.779 4.13 1.89 0 3.23-.908 3.56-2.35h-1.722zM187 42.254c1.091 0 1.809.77 1.846 1.985h-3.772c.08-1.2.842-1.985 1.926-1.985zm8.036 3.977l1.641 2.784h2.051l-2.615-4.05 2.586-3.956h-2l-1.582 2.776h-.125l-1.589-2.776h-2.109l2.614 4.036-2.592 3.97h1.963l1.633-2.784h.124zm9.421-5.368c-1.099 0-2.029.55-2.49 1.457h-.125v-1.325h-1.75v10.664h1.816v-3.875h.125c.41.85 1.296 1.348 2.446 1.348 2.021 0 3.281-1.59 3.281-4.131 0-2.563-1.274-4.138-3.303-4.138zm-.571 6.76c-1.238 0-2.007-1.003-2.014-2.622.007-1.619.783-2.622 2.021-2.622 1.245 0 2 .981 2 2.622 0 1.64-.747 2.622-2.007 2.622zm8.915 1.538c2.395 0 3.853-1.567 3.853-4.167 0-2.586-1.465-4.153-3.853-4.153-2.38 0-3.853 1.575-3.853 4.153 0 2.6 1.451 4.167 3.853 4.167zm0-1.487c-1.267 0-1.992-.981-1.992-2.673 0-1.692.725-2.673 1.992-2.673 1.26 0 1.985.981 1.985 2.673 0 1.692-.718 2.673-1.985 2.673zm5.261-4.394c0 1.201.725 1.904 2.263 2.256l1.421.33c.761.175 1.106.468 1.106.922 0 .608-.638 1.026-1.553 1.026-.908 0-1.472-.367-1.648-.96h-1.795c.14 1.443 1.399 2.307 3.399 2.307 1.999 0 3.413-1.018 3.413-2.549 0-1.179-.71-1.83-2.241-2.182l-1.414-.315c-.805-.19-1.186-.476-1.186-.93 0-.594.622-.997 1.45-.997.849 0 1.384.367 1.516.93h1.706c-.131-1.442-1.325-2.277-3.229-2.277-1.89 0-3.208 1.003-3.208 2.439zm13.426 3.53c-.263.6-.886.938-1.787.938-1.193 0-1.963-.85-2.006-2.205v-.095h5.595v-.579c0-2.512-1.369-4.028-3.655-4.028-2.321 0-3.764 1.618-3.764 4.19 0 2.563 1.421 4.13 3.779 4.13 1.89 0 3.23-.908 3.56-2.35h-1.722zm-1.86-4.556c1.091 0 1.809.77 1.846 1.985h-3.772c.08-1.2.842-1.985 1.926-1.985zm8.146 6.878c1.114 0 2.037-.52 2.491-1.4h.124V49h1.758V37.897h-1.816v4.372h-.125c-.425-.879-1.333-1.406-2.432-1.406-2.021 0-3.296 1.596-3.296 4.13 0 2.542 1.268 4.139 3.296 4.139zm.564-6.753c1.245 0 2.014 1.003 2.014 2.622 0 1.626-.761 2.622-2.014 2.622-1.245 0-1.999-.981-1.999-2.622 0-1.633.762-2.622 1.999-2.622zm10.199-3.347v2.014h-1.267v1.413h1.267v4.417c0 1.545.732 2.16 2.571 2.16.351 0 .688-.029.952-.08v-1.392c-.22.022-.359.037-.615.037-.762 0-1.099-.359-1.099-1.157v-3.985h1.714v-1.413h-1.714v-2.014h-1.809zm8.483 10.13c2.395 0 3.853-1.568 3.853-4.168 0-2.586-1.465-4.153-3.853-4.153-2.38 0-3.852 1.575-3.852 4.153 0 2.6 1.45 4.167 3.852 4.167zm0-1.488c-1.267 0-1.992-.981-1.992-2.673 0-1.692.725-2.673 1.992-2.673 1.26 0 1.985.981 1.985 2.673 0 1.692-.718 2.673-1.985 2.673zm13.802 1.59c2.439 0 4.226-1.443 4.476-3.582h-1.861c-.256 1.187-1.274 1.941-2.615 1.941-1.801 0-2.922-1.501-2.922-3.911 0-2.402 1.121-3.904 2.915-3.904 1.333 0 2.351.828 2.615 2.102h1.86c-.22-2.19-2.073-3.742-4.475-3.742-2.996 0-4.849 2.116-4.849 5.551 0 3.42 1.861 5.545 4.856 5.545zm10.893-11.097c-3.069 0-5.002 2.132-5.002 5.545 0 3.406 1.904 5.552 5.002 5.552 3.084 0 4.995-2.146 4.995-5.552 0-3.413-1.919-5.545-4.995-5.545zm0 1.634c1.875 0 3.069 1.516 3.069 3.91 0 2.381-1.186 3.92-3.069 3.92-1.904 0-3.069-1.539-3.069-3.92 0-2.394 1.194-3.91 3.069-3.91zM293.37 49l3.655-10.569h-2.015l-2.636 8.408h-.125l-2.659-8.408h-2.087L291.194 49h2.176zm7.128 0V38.431h-1.89V49h1.89zm2.367-10.569V49h3.963c3.164 0 4.973-1.94 4.973-5.332 0-3.318-1.831-5.237-4.973-5.237h-3.963zm1.89 1.59h1.824c2.072 0 3.296 1.347 3.296 3.676 0 2.38-1.194 3.714-3.296 3.714h-1.824v-7.39zm13.676 5.551V43.91h-4.812v1.662h4.812zM323.047 49h1.89V38.431h-1.883l-2.761 1.941v1.78l2.629-1.86h.125V49zm8.344.256c2.688 0 4.285-2.102 4.285-5.669 0-3.5-1.7-5.42-4.226-5.42-2.3 0-3.926 1.546-3.926 3.706 0 2.03 1.465 3.509 3.479 3.509 1.238 0 2.241-.572 2.739-1.575h.125c-.022 2.483-.909 3.904-2.454 3.904-.908 0-1.633-.498-1.86-1.304h-1.883c.308 1.721 1.787 2.85 3.721 2.85zm.066-5.332c-1.231 0-2.08-.864-2.08-2.11 0-1.193.893-2.108 2.087-2.108 1.194 0 2.088.93 2.088 2.146 0 1.2-.872 2.072-2.095 2.072zM17.471 70c2.249 0 3.582-1.106 3.582-2.966 0-1.4-.916-2.388-2.359-2.571v-.117c1.018-.183 1.824-1.18 1.824-2.278 0-1.619-1.187-2.637-3.127-2.637h-4.043V70h4.123zm-2.805-9.404h2.446c1.311 0 2.073.622 2.073 1.699 0 1.12-.813 1.692-2.41 1.692h-2.109v-3.391zm0 8.24v-3.714h2.483c1.684 0 2.549.623 2.549 1.846s-.835 1.867-2.425 1.867h-2.607zm10.336 1.303c1.055 0 1.92-.461 2.432-1.304h.117V70h1.201v-5.405c0-1.64-1.076-2.63-3.003-2.63-1.684 0-2.93.835-3.098 2.102h1.274c.176-.622.835-.981 1.78-.981 1.18 0 1.787.535 1.787 1.509v.718l-2.277.139c-1.839.11-2.879.922-2.879 2.336 0 1.443 1.135 2.351 2.666 2.351zm.235-1.106c-.916 0-1.597-.469-1.597-1.274 0-.791.527-1.209 1.728-1.29l2.124-.138v.725c0 1.128-.96 1.977-2.255 1.977zm5.421-4.768c0 1.143.674 1.78 2.154 2.139l1.355.33c.842.205 1.252.57 1.252 1.113 0 .725-.762 1.23-1.824 1.23-1.01 0-1.64-.425-1.853-1.091h-1.296c.139 1.31 1.347 2.153 3.105 2.153 1.795 0 3.164-.974 3.164-2.388 0-1.135-.718-1.78-2.204-2.138l-1.216-.293c-.93-.227-1.37-.564-1.37-1.106 0-.703.733-1.18 1.67-1.18.952 0 1.568.418 1.736 1.048h1.245c-.168-1.296-1.318-2.117-2.974-2.117-1.677 0-2.944.99-2.944 2.3zm13.024 3.692c-.33.695-1.018 1.069-2.036 1.069-1.34 0-2.212-.989-2.278-2.549v-.059h5.677v-.483c0-2.454-1.297-3.97-3.428-3.97-2.168 0-3.56 1.612-3.56 4.095 0 2.497 1.37 4.08 3.56 4.08 1.728 0 2.959-.836 3.325-2.183h-1.26zm-2.08-4.878c1.253 0 2.088.922 2.117 2.321h-4.35c.095-1.399.974-2.321 2.233-2.321zm8.103 7.06c1.09 0 2.028-.52 2.526-1.399h.118V70h1.2V58.97H52.29v4.38h-.11c-.447-.865-1.377-1.385-2.475-1.385-2.007 0-3.318 1.612-3.318 4.087 0 2.483 1.296 4.087 3.318 4.087zm.293-7.038c1.428 0 2.321 1.142 2.321 2.951 0 1.824-.886 2.952-2.322 2.952-1.442 0-2.307-1.106-2.307-2.952 0-1.838.872-2.951 2.308-2.951zm12.996 7.038c2.249 0 3.64-1.553 3.64-4.087 0-2.541-1.391-4.087-3.64-4.087-2.248 0-3.64 1.546-3.64 4.087 0 2.534 1.392 4.087 3.64 4.087zm0-1.135c-1.494 0-2.336-1.084-2.336-2.952 0-1.875.842-2.951 2.336-2.951 1.494 0 2.337 1.076 2.337 2.951 0 1.868-.843 2.952-2.337 2.952zm5.378.996h1.26v-4.673c0-1.384.813-2.226 2.072-2.226 1.26 0 1.86.673 1.86 2.094V70h1.26v-5.112c0-1.875-.988-2.923-2.76-2.923-1.21 0-1.978.513-2.374 1.385h-.117v-1.245h-1.201V70zm13.187 2.856c1.399 0 2.029-.541 2.702-2.373l3.084-8.379h-1.34l-2.161 6.497h-.117l-2.168-6.496h-1.363l2.923 7.902-.147.47c-.33.951-.725 1.295-1.45 1.295-.176 0-.373-.007-.527-.036v1.076c.176.03.395.044.564.044zM91.74 70.14c2.249 0 3.64-1.553 3.64-4.087 0-2.541-1.391-4.087-3.64-4.087-2.248 0-3.64 1.546-3.64 4.087 0 2.534 1.392 4.087 3.64 4.087zm0-1.135c-1.494 0-2.336-1.084-2.336-2.952 0-1.875.842-2.951 2.336-2.951 1.494 0 2.337 1.076 2.337 2.951 0 1.868-.843 2.952-2.337 2.952zm11.765-6.9h-1.26v4.673c0 1.385-.762 2.212-2.154 2.212-1.26 0-1.787-.659-1.787-2.08v-4.805h-1.26v5.113c0 1.868.923 2.922 2.696 2.922 1.208 0 2.051-.498 2.446-1.377h.117V70h1.202v-7.895zM105.639 70h1.259v-4.893c0-1.113.872-1.919 2.073-1.919.249 0 .703.044.806.074v-1.26a5.404 5.404 0 00-.63-.037c-1.048 0-1.956.542-2.19 1.311h-.117v-1.172h-1.201V70zm9.466 0h1.26v-4.893c0-1.113.871-1.919 2.072-1.919.249 0 .703.044.806.074v-1.26a5.404 5.404 0 00-.63-.037c-1.047 0-1.955.542-2.19 1.311h-.117v-1.172h-1.201V70zm7.67.14c1.055 0 1.919-.462 2.432-1.305h.117V70h1.201v-5.405c0-1.64-1.077-2.63-3.003-2.63-1.684 0-2.93.835-3.098 2.102h1.274c.176-.622.835-.981 1.78-.981 1.179 0 1.787.535 1.787 1.509v.718l-2.278.139c-1.838.11-2.878.922-2.878 2.336 0 1.443 1.135 2.351 2.666 2.351zm.234-1.107c-.915 0-1.596-.469-1.596-1.274 0-.791.527-1.209 1.728-1.29l2.124-.138v.725c0 1.128-.959 1.977-2.256 1.977zm5.605.967h1.26v-4.673c0-1.384.813-2.226 2.073-2.226 1.259 0 1.86.673 1.86 2.094V70h1.26v-5.112c0-1.875-.989-2.923-2.761-2.923-1.209 0-1.978.513-2.374 1.385h-.117v-1.245h-1.201V70zm11.442.14c1.092 0 2.029-.52 2.527-1.4h.117V70h1.201V58.97h-1.259v4.38h-.11c-.447-.865-1.377-1.385-2.476-1.385-2.007 0-3.318 1.612-3.318 4.087 0 2.483 1.297 4.087 3.318 4.087zm.293-7.04c1.428 0 2.322 1.143 2.322 2.952 0 1.824-.886 2.952-2.322 2.952-1.443 0-2.307-1.106-2.307-2.952 0-1.838.872-2.951 2.307-2.951zm9.003 7.04c2.249 0 3.64-1.554 3.64-4.088 0-2.541-1.391-4.087-3.64-4.087-2.248 0-3.64 1.546-3.64 4.087 0 2.534 1.392 4.087 3.64 4.087zm0-1.136c-1.494 0-2.336-1.084-2.336-2.952 0-1.875.842-2.951 2.336-2.951 1.494 0 2.337 1.076 2.337 2.951 0 1.868-.843 2.952-2.337 2.952zm5.378.996h1.26v-4.893c0-1.113.798-2.006 1.831-2.006.996 0 1.648.6 1.648 1.538V70h1.26v-5.076c0-1.003.732-1.823 1.831-1.823 1.113 0 1.662.57 1.662 1.735V70h1.26v-5.457c0-1.655-.901-2.578-2.512-2.578-1.092 0-1.992.55-2.417 1.385h-.117c-.367-.82-1.114-1.385-2.183-1.385-1.055 0-1.846.506-2.205 1.385h-.117v-1.245h-1.201V70zm18.285 0V59.431h-1.319V70h1.319zm2.455-10.569V70h3.625c3.143 0 4.988-1.956 4.988-5.288 0-3.325-1.853-5.28-4.988-5.28h-3.625zm1.318 1.187h2.22c2.343 0 3.728 1.523 3.728 4.109 0 2.578-1.37 4.087-3.728 4.087h-2.22v-8.196zm8.996 3.647c0 1.143.674 1.78 2.154 2.139l1.354.33c.843.205 1.253.57 1.253 1.113 0 .725-.762 1.23-1.824 1.23-1.011 0-1.64-.425-1.853-1.091h-1.296c.139 1.31 1.347 2.153 3.105 2.153 1.795 0 3.164-.974 3.164-2.388 0-1.135-.717-1.78-2.204-2.138l-1.216-.293c-.93-.227-1.37-.564-1.37-1.106 0-.703.733-1.18 1.67-1.18.952 0 1.568.418 1.736 1.048h1.245c-.168-1.296-1.318-2.117-2.973-2.117-1.678 0-2.945.99-2.945 2.3zm8.593 8.423l1.15-4.168h-1.399l-.696 4.168h.945zm8.082.168c1.399 0 2.029-.541 2.703-2.373l3.083-8.379h-1.34l-2.161 6.497h-.117l-2.168-6.496h-1.362l2.922 7.902-.146.47c-.33.951-.725 1.295-1.45 1.295a3.04 3.04 0 01-.528-.036v1.076c.176.03.396.044.564.044zm10.183-2.717c2.248 0 3.64-1.553 3.64-4.087 0-2.541-1.392-4.087-3.64-4.087-2.249 0-3.641 1.546-3.641 4.087 0 2.534 1.392 4.087 3.641 4.087zm0-1.135c-1.495 0-2.337-1.084-2.337-2.952 0-1.875.842-2.951 2.337-2.951 1.494 0 2.336 1.076 2.336 2.951 0 1.868-.842 2.952-2.336 2.952zm11.764-6.9h-1.26v4.673c0 1.385-.762 2.212-2.153 2.212-1.26 0-1.787-.659-1.787-2.08v-4.805h-1.26v5.113c0 1.868.923 2.922 2.695 2.922 1.209 0 2.051-.498 2.447-1.377h.117V70h1.201v-7.895zm6.2 7.896h1.259v-4.673c0-1.333.777-2.226 2.19-2.226 1.194 0 1.824.695 1.824 2.094V70h1.26v-5.112c0-1.853-1.055-2.923-2.725-2.923-1.208 0-2.036.513-2.431 1.385h-.118v-4.38h-1.259V70zm10.79.14c1.055 0 1.919-.462 2.432-1.305h.117V70h1.201v-5.405c0-1.64-1.077-2.63-3.003-2.63-1.685 0-2.93.835-3.098 2.102h1.274c.176-.622.835-.981 1.78-.981 1.179 0 1.787.535 1.787 1.509v.718l-2.278.139c-1.838.11-2.878.922-2.878 2.336 0 1.443 1.135 2.351 2.666 2.351zm.234-1.107c-.915 0-1.596-.469-1.596-1.274 0-.791.527-1.209 1.728-1.29l2.124-.138v.725c0 1.128-.959 1.977-2.256 1.977zm11.757-6.928h-1.347l-2.161 6.503h-.117l-2.161-6.504h-1.347L249.176 70h1.289l2.922-7.895zm6.381 5.852c-.329.695-1.018 1.069-2.036 1.069-1.34 0-2.212-.989-2.277-2.549v-.059h5.676v-.483c0-2.454-1.297-3.97-3.428-3.97-2.168 0-3.56 1.612-3.56 4.095 0 2.497 1.37 4.08 3.56 4.08 1.729 0 2.959-.836 3.325-2.183h-1.26zm-2.08-4.878c1.253 0 2.088.922 2.117 2.321h-4.35c.095-1.399.974-2.321 2.233-2.321zm13.1 7.06c1.999 0 3.31-1.618 3.31-4.087 0-2.483-1.304-4.087-3.31-4.087-1.084 0-2.044.535-2.476 1.385h-.117v-4.38h-1.26V70h1.201v-1.26h.117c.498.88 1.436 1.4 2.535 1.4zm-.293-7.038c1.442 0 2.299 1.106 2.299 2.951 0 1.846-.857 2.952-2.299 2.952-1.436 0-2.33-1.128-2.33-2.952s.894-2.951 2.33-2.951zm10.57 4.856c-.33.695-1.018 1.069-2.036 1.069-1.34 0-2.212-.989-2.278-2.549v-.059h5.676v-.483c0-2.454-1.296-3.97-3.427-3.97-2.168 0-3.56 1.612-3.56 4.095 0 2.497 1.37 4.08 3.56 4.08 1.728 0 2.959-.836 3.325-2.183h-1.26zm-2.08-4.878c1.252 0 2.087.922 2.117 2.321h-4.351c.095-1.399.974-2.321 2.234-2.321zm10.409 4.878c-.329.695-1.018 1.069-2.036 1.069-1.34 0-2.212-.989-2.278-2.549v-.059h5.677v-.483c0-2.454-1.297-3.97-3.428-3.97-2.168 0-3.56 1.612-3.56 4.095 0 2.497 1.37 4.08 3.56 4.08 1.728 0 2.959-.836 3.325-2.183h-1.26zm-2.08-4.878c1.253 0 2.088.922 2.117 2.321h-4.351c.096-1.399.975-2.321 2.234-2.321zm5.18 6.921h1.26v-4.673c0-1.384.813-2.226 2.073-2.226s1.86.673 1.86 2.094V70h1.26v-5.112c0-1.875-.989-2.923-2.761-2.923-1.209 0-1.978.513-2.373 1.385h-.118v-1.245h-1.201V70zm12.513 0h1.26v-4.673c0-1.384.813-2.226 2.073-2.226s1.86.673 1.86 2.094V70h1.26v-5.112c0-1.875-.989-2.923-2.761-2.923-1.209 0-1.978.513-2.373 1.385h-.117v-1.245h-1.202V70zm13.75-2.043c-.33.695-1.018 1.069-2.036 1.069-1.341 0-2.212-.989-2.278-2.549v-.059h5.676v-.483c0-2.454-1.296-3.97-3.428-3.97-2.168 0-3.559 1.612-3.559 4.095 0 2.497 1.369 4.08 3.559 4.08 1.729 0 2.959-.836 3.325-2.183h-1.259zm-2.08-4.878c1.252 0 2.087.922 2.116 2.321h-4.35c.095-1.399.974-2.321 2.234-2.321zm7.377 7.06c1.054 0 1.919-.461 2.431-1.304h.118V70h1.201v-5.405c0-1.64-1.077-2.63-3.003-2.63-1.685 0-2.93.835-3.098 2.102h1.274c.176-.622.835-.981 1.78-.981 1.179 0 1.787.535 1.787 1.509v.718l-2.278.139c-1.838.11-2.878.922-2.878 2.336 0 1.443 1.135 2.351 2.666 2.351zm.234-1.106c-.915 0-1.597-.469-1.597-1.274 0-.791.528-1.209 1.729-1.29l2.124-.138v.725c0 1.128-.959 1.977-2.256 1.977zm5.605.967h1.26v-4.893c0-1.113.871-1.919 2.072-1.919.249 0 .704.044.806.074v-1.26a5.404 5.404 0 00-.63-.037c-1.047 0-1.955.542-2.19 1.311h-.117v-1.172h-1.201V70zM13.003 82.265c0 1.143.674 1.78 2.154 2.139l1.355.33c.842.205 1.252.57 1.252 1.113 0 .725-.762 1.23-1.824 1.23-1.01 0-1.64-.425-1.853-1.091h-1.296c.14 1.31 1.348 2.153 3.105 2.153 1.795 0 3.165-.974 3.165-2.388 0-1.135-.718-1.78-2.205-2.138l-1.216-.293c-.93-.227-1.37-.564-1.37-1.106 0-.703.733-1.18 1.67-1.18.953 0 1.568.418 1.736 1.048h1.245c-.168-1.296-1.318-2.117-2.973-2.117-1.678 0-2.945.99-2.945 2.3zm11.04 5.874c2.248 0 3.64-1.553 3.64-4.087 0-2.541-1.392-4.087-3.64-4.087-2.249 0-3.64 1.546-3.64 4.087 0 2.534 1.391 4.087 3.64 4.087zm0-1.135c-1.494 0-2.337-1.084-2.337-2.952 0-1.875.843-2.951 2.337-2.951 1.494 0 2.336 1.076 2.336 2.951 0 1.868-.842 2.952-2.336 2.952zM29.42 88h1.26v-4.893c0-1.113.799-2.006 1.831-2.006.996 0 1.648.6 1.648 1.538V88h1.26v-5.076c0-1.003.732-1.823 1.831-1.823 1.113 0 1.663.57 1.663 1.735V88h1.26v-5.457c0-1.655-.901-2.578-2.513-2.578-1.091 0-1.992.55-2.417 1.385h-.117c-.366-.82-1.113-1.385-2.183-1.385-1.054 0-1.845.506-2.204 1.385h-.117v-1.245H29.42V88zm18.042-2.043c-.33.695-1.018 1.069-2.037 1.069-1.34 0-2.211-.989-2.277-2.549v-.059h5.676v-.483c0-2.454-1.296-3.97-3.428-3.97-2.168 0-3.56 1.612-3.56 4.095 0 2.497 1.37 4.08 3.56 4.08 1.729 0 2.96-.836 3.325-2.183h-1.26zm-2.08-4.878c1.252 0 2.087.922 2.116 2.321h-4.35c.095-1.399.974-2.321 2.234-2.321zm8.424 7.06c2.249 0 3.64-1.553 3.64-4.087 0-2.541-1.391-4.087-3.64-4.087-2.248 0-3.64 1.546-3.64 4.087 0 2.534 1.392 4.087 3.64 4.087zm0-1.135c-1.494 0-2.336-1.084-2.336-2.952 0-1.875.842-2.951 2.336-2.951 1.494 0 2.337 1.076 2.337 2.951 0 1.868-.843 2.952-2.337 2.952zm5.378.996h1.26v-4.673c0-1.384.813-2.226 2.072-2.226 1.26 0 1.86.673 1.86 2.094V88h1.26v-5.112c0-1.875-.988-2.923-2.76-2.923-1.21 0-1.978.513-2.374 1.385h-.117v-1.245h-1.201V88zm13.749-2.043c-.33.695-1.018 1.069-2.036 1.069-1.34 0-2.212-.989-2.278-2.549v-.059h5.676v-.483c0-2.454-1.296-3.97-3.427-3.97-2.168 0-3.56 1.612-3.56 4.095 0 2.497 1.37 4.08 3.56 4.08 1.728 0 2.959-.836 3.325-2.183h-1.26zm-2.08-4.878c1.252 0 2.087.922 2.117 2.321h-4.35c.094-1.399.973-2.321 2.233-2.321zm9.833-2.498a.882.882 0 00.878-.879.882.882 0 00-.878-.879.882.882 0 00-.88.88c0 .483.396.878.88.878zM80.056 88h1.26v-7.895h-1.26V88zm3.422 0h1.26v-4.673c0-1.384.812-2.226 2.072-2.226s1.86.673 1.86 2.094V88h1.26v-5.112c0-1.875-.988-2.923-2.76-2.923-1.21 0-1.978.513-2.374 1.385h-.117v-1.245h-1.201V88zm13.04-9.939v2.043h-1.274v1.055h1.274v4.79c0 1.509.652 2.11 2.278 2.11.25 0 .49-.03.74-.074v-1.062c-.235.022-.36.03-.586.03-.82 0-1.172-.396-1.172-1.326v-4.468h1.758v-1.055h-1.758v-2.043h-1.26zM101.273 88h1.26v-4.673c0-1.333.776-2.226 2.19-2.226 1.194 0 1.824.695 1.824 2.094V88h1.26v-5.112c0-1.853-1.055-2.923-2.725-2.923-1.209 0-2.036.513-2.432 1.385h-.117v-4.38h-1.26V88zm13.823-2.043c-.33.695-1.018 1.069-2.036 1.069-1.341 0-2.212-.989-2.278-2.549v-.059h5.676v-.483c0-2.454-1.296-3.97-3.428-3.97-2.168 0-3.559 1.612-3.559 4.095 0 2.497 1.369 4.08 3.559 4.08 1.729 0 2.959-.836 3.326-2.183h-1.26zm-2.08-4.878c1.252 0 2.087.922 2.116 2.321h-4.35c.095-1.399.974-2.321 2.234-2.321zm13.018-1.114c-1.076 0-2.021.55-2.527 1.458h-.117v-1.319h-1.201v10.533h1.26v-3.823h.117c.432.834 1.34 1.325 2.468 1.325 2.007 0 3.318-1.618 3.318-4.087 0-2.483-1.304-4.087-3.318-4.087zm-.3 7.039c-1.421 0-2.322-1.143-2.322-2.952 0-1.816.901-2.951 2.329-2.951 1.443 0 2.307 1.106 2.307 2.951 0 1.846-.864 2.952-2.314 2.952zm7.553 1.135c1.055 0 1.919-.461 2.432-1.304h.117V88h1.201v-5.405c0-1.64-1.077-2.63-3.003-2.63-1.685 0-2.93.835-3.098 2.102h1.274c.176-.622.835-.981 1.78-.981 1.179 0 1.787.535 1.787 1.509v.718l-2.278.139c-1.838.11-2.878.922-2.878 2.336 0 1.443 1.135 2.351 2.666 2.351zm.234-1.106c-.915 0-1.596-.469-1.596-1.274 0-.791.527-1.209 1.728-1.29l2.124-.138v.725c0 1.128-.959 1.977-2.256 1.977zm5.422-4.768c0 1.143.674 1.78 2.153 2.139l1.355.33c.843.205 1.253.57 1.253 1.113 0 .725-.762 1.23-1.824 1.23-1.011 0-1.641-.425-1.853-1.091h-1.296c.139 1.31 1.347 2.153 3.105 2.153 1.794 0 3.164-.974 3.164-2.388 0-1.135-.718-1.78-2.205-2.138l-1.215-.293c-.931-.227-1.37-.564-1.37-1.106 0-.703.732-1.18 1.67-1.18.952 0 1.567.418 1.736 1.048h1.245c-.169-1.296-1.318-2.117-2.974-2.117-1.677 0-2.944.99-2.944 2.3zm8.249-4.204v2.043h-1.275v1.055h1.275v4.79c0 1.509.652 2.11 2.278 2.11.249 0 .49-.03.739-.074v-1.062a5.31 5.31 0 01-.586.03c-.82 0-1.172-.396-1.172-1.326v-4.468h1.758v-1.055h-1.758v-2.043h-1.259zM158.387 88h1.318V77.431h-1.311l-2.813 2.022v1.391l2.688-1.948h.118V88zm9.061 0h1.289v-2.19h1.502v-1.18h-1.502v-7.199h-1.911a165.824 165.824 0 00-4.527 7.178v1.201h5.149V88zm-3.801-3.45c1.15-1.94 2.534-4.123 3.721-5.896h.088v5.984h-3.809v-.088zm15.311 3.59c1.091 0 2.029-.52 2.527-1.4h.117V88h1.201V76.97h-1.26v4.38h-.109c-.447-.865-1.377-1.385-2.476-1.385-2.007 0-3.318 1.612-3.318 4.087 0 2.483 1.297 4.087 3.318 4.087zm.293-7.04c1.428 0 2.322 1.143 2.322 2.952 0 1.824-.886 2.952-2.322 2.952-1.443 0-2.307-1.106-2.307-2.952 0-1.838.871-2.951 2.307-2.951zm7.956 7.04c1.054 0 1.919-.462 2.431-1.305h.118V88h1.201v-5.405c0-1.64-1.077-2.63-3.003-2.63-1.685 0-2.93.835-3.098 2.102h1.274c.176-.622.835-.981 1.78-.981 1.179 0 1.787.535 1.787 1.509v.718l-2.278.139c-1.838.11-2.878.922-2.878 2.336 0 1.443 1.135 2.351 2.666 2.351zm.234-1.107c-.915 0-1.597-.469-1.597-1.274 0-.791.528-1.209 1.729-1.29l2.124-.138v.725c0 1.128-.959 1.977-2.256 1.977zm5.986 3.823c1.399 0 2.029-.541 2.702-2.373l3.084-8.379h-1.34l-2.161 6.497h-.117l-2.168-6.496h-1.363l2.923 7.902-.147.47c-.329.951-.725 1.295-1.45 1.295-.176 0-.373-.007-.527-.036v1.076c.176.03.395.044.564.044zm6.828-8.59c0 1.142.673 1.779 2.153 2.138l1.355.33c.842.205 1.252.57 1.252 1.113 0 .725-.761 1.23-1.823 1.23-1.011 0-1.641-.425-1.853-1.091h-1.297c.139 1.31 1.348 2.153 3.106 2.153 1.794 0 3.164-.974 3.164-2.388 0-1.135-.718-1.78-2.205-2.138l-1.216-.293c-.93-.227-1.369-.564-1.369-1.106 0-.703.732-1.18 1.67-1.18.952 0 1.567.418 1.735 1.048h1.246c-.169-1.296-1.319-2.117-2.974-2.117-1.677 0-2.944.99-2.944 2.3zm21.719-2.162h-1.267l-1.552 6.314h-.118l-1.765-6.314h-1.208l-1.765 6.314h-.118l-1.552-6.314h-1.275L213.566 88h1.275l1.757-6.108h.118L218.481 88h1.281l2.212-7.895zM223.492 88h1.26v-4.673c0-1.333.776-2.226 2.19-2.226 1.194 0 1.824.695 1.824 2.094V88h1.259v-5.112c0-1.853-1.054-2.923-2.724-2.923-1.209 0-2.036.513-2.432 1.385h-.117v-4.38h-1.26V88zm11.838.14c2.248 0 3.64-1.554 3.64-4.088 0-2.541-1.392-4.087-3.64-4.087-2.249 0-3.64 1.546-3.64 4.087 0 2.534 1.391 4.087 3.64 4.087zm0-1.136c-1.494 0-2.337-1.084-2.337-2.952 0-1.875.843-2.951 2.337-2.951 1.494 0 2.336 1.076 2.336 2.951 0 1.868-.842 2.952-2.336 2.952zm9.898-8.943v2.043h-1.274v1.055h1.274v4.79c0 1.509.652 2.11 2.278 2.11.249 0 .491-.03.74-.074v-1.062c-.235.022-.359.03-.586.03-.82 0-1.172-.396-1.172-1.326v-4.468h1.758v-1.055h-1.758v-2.043h-1.26zm9.794 7.895c-.329.696-1.018 1.07-2.036 1.07-1.34 0-2.212-.989-2.278-2.549v-.059h5.677v-.483c0-2.454-1.297-3.97-3.428-3.97-2.168 0-3.56 1.612-3.56 4.095 0 2.497 1.37 4.08 3.56 4.08 1.728 0 2.959-.836 3.325-2.183h-1.26zm-2.08-4.877c1.253 0 2.088.922 2.117 2.321h-4.351c.096-1.399.975-2.321 2.234-2.321zm4.997 1.186c0 1.143.674 1.78 2.153 2.139l1.355.33c.843.205 1.253.57 1.253 1.113 0 .725-.762 1.23-1.824 1.23-1.011 0-1.64-.425-1.853-1.091h-1.296c.139 1.31 1.347 2.153 3.105 2.153 1.795 0 3.164-.974 3.164-2.388 0-1.135-.718-1.78-2.204-2.138l-1.216-.293c-.93-.227-1.37-.564-1.37-1.106 0-.703.733-1.18 1.67-1.18.952 0 1.568.418 1.736 1.048h1.245c-.168-1.296-1.318-2.117-2.974-2.117-1.677 0-2.944.99-2.944 2.3zm8.249-4.204v2.043h-1.275v1.055h1.275v4.79c0 1.509.652 2.11 2.278 2.11.249 0 .49-.03.739-.074v-1.062c-.234.022-.358.03-.585.03-.821 0-1.172-.396-1.172-1.326v-4.468h1.757v-1.055h-1.757v-2.043h-1.26zm9.794 7.895c-.33.696-1.018 1.07-2.036 1.07-1.34 0-2.212-.989-2.278-2.549v-.059h5.676v-.483c0-2.454-1.296-3.97-3.427-3.97-2.168 0-3.56 1.612-3.56 4.095 0 2.497 1.37 4.08 3.56 4.08 1.728 0 2.959-.836 3.325-2.183h-1.26zm-2.08-4.877c1.252 0 2.087.922 2.117 2.321h-4.351c.095-1.399.974-2.321 2.234-2.321zm8.102 7.06c1.092 0 2.029-.52 2.527-1.399h.117V88h1.201V76.97h-1.259v4.38h-.11c-.447-.865-1.377-1.385-2.476-1.385-2.007 0-3.318 1.612-3.318 4.087 0 2.483 1.297 4.087 3.318 4.087zm.293-7.038c1.428 0 2.322 1.142 2.322 2.951 0 1.824-.886 2.952-2.322 2.952-1.443 0-2.307-1.106-2.307-2.952 0-1.838.872-2.951 2.307-2.951zm13.597-1.136c-1.076 0-2.021.55-2.526 1.458h-.118v-1.319h-1.201v10.533h1.26v-3.823h.117c.432.834 1.34 1.325 2.468 1.325 2.007 0 3.318-1.618 3.318-4.087 0-2.483-1.303-4.087-3.318-4.087zm-.3 7.039c-1.421 0-2.322-1.143-2.322-2.952 0-1.816.901-2.951 2.329-2.951 1.443 0 2.308 1.106 2.308 2.951 0 1.846-.865 2.952-2.315 2.952zm8.6 1.135c2.249 0 3.641-1.553 3.641-4.087 0-2.541-1.392-4.087-3.641-4.087-2.248 0-3.64 1.546-3.64 4.087 0 2.534 1.392 4.087 3.64 4.087zm0-1.135c-1.494 0-2.336-1.084-2.336-2.952 0-1.875.842-2.951 2.336-2.951 1.495 0 2.337 1.076 2.337 2.951 0 1.868-.842 2.952-2.337 2.952zm5.195-4.739c0 1.143.674 1.78 2.153 2.139l1.355.33c.843.205 1.253.57 1.253 1.113 0 .725-.762 1.23-1.824 1.23-1.011 0-1.641-.425-1.853-1.091h-1.296c.139 1.31 1.347 2.153 3.105 2.153 1.795 0 3.164-.974 3.164-2.388 0-1.135-.718-1.78-2.204-2.138l-1.216-.293c-.93-.227-1.37-.564-1.37-1.106 0-.703.733-1.18 1.67-1.18.952 0 1.567.418 1.736 1.048h1.245c-.168-1.296-1.318-2.117-2.974-2.117-1.677 0-2.944.99-2.944 2.3zm8.454-3.684a.882.882 0 00.879-.879.882.882 0 00-.879-.879.881.881 0 00-.879.88c0 .483.395.878.879.878zm-.63 9.419h1.26v-7.895h-1.26V88zm3.949-9.939v2.043h-1.274v1.055h1.274v4.79c0 1.509.652 2.11 2.278 2.11.249 0 .491-.03.74-.074v-1.062a5.31 5.31 0 01-.586.03c-.82 0-1.172-.396-1.172-1.326v-4.468h1.758v-1.055h-1.758v-2.043h-1.26zm5.341.52a.881.881 0 00.879-.879.881.881 0 00-.879-.879.881.881 0 00-.878.88c0 .483.395.878.878.878zM325.874 88h1.259v-7.895h-1.259V88zm9.867-7.895h-1.348l-2.16 6.503h-.117l-2.161-6.504h-1.348L331.53 88h1.289l2.922-7.895zm6.381 5.852c-.329.695-1.018 1.069-2.036 1.069-1.34 0-2.212-.989-2.278-2.549v-.059h5.676v-.483c0-2.454-1.296-3.97-3.427-3.97-2.168 0-3.56 1.612-3.56 4.095 0 2.497 1.37 4.08 3.56 4.08 1.728 0 2.959-.836 3.325-2.183h-1.26zm-2.08-4.878c1.252 0 2.087.922 2.117 2.321h-4.351c.095-1.399.974-2.321 2.234-2.321zM13.714 106h1.26v-6.84h1.809v-1.055h-1.81v-.843c0-.864.381-1.303 1.29-1.303.227 0 .44.007.593.036V94.97a4.43 4.43 0 00-.85-.073c-1.501 0-2.292.754-2.292 2.329v.879h-1.311v1.054h1.31V106zm7.575.139c2.248 0 3.64-1.553 3.64-4.087 0-2.541-1.392-4.087-3.64-4.087-2.249 0-3.64 1.546-3.64 4.087 0 2.534 1.391 4.087 3.64 4.087zm0-1.135c-1.494 0-2.337-1.084-2.337-2.952 0-1.875.843-2.951 2.337-2.951 1.494 0 2.336 1.076 2.336 2.951 0 1.868-.842 2.952-2.336 2.952zm5.377.996h1.26v-4.893c0-1.113.872-1.918 2.073-1.918.249 0 .703.043.806.073v-1.26a5.404 5.404 0 00-.63-.037c-1.048 0-1.956.542-2.19 1.311h-.117v-1.171h-1.201V106zm13.883.249c2.249 0 3.919-1.252 4.27-3.193h-1.34c-.337 1.223-1.458 1.977-2.93 1.977-2.036 0-3.31-1.662-3.31-4.314 0-2.651 1.274-4.321 3.303-4.321 1.457 0 2.585.857 2.937 2.22h1.34c-.315-2.037-2.05-3.436-4.277-3.436-2.871 0-4.658 2.124-4.658 5.537 0 3.406 1.794 5.53 4.665 5.53zm10.68-11.067c-2.988 0-4.848 2.132-4.848 5.53 0 3.384 1.816 5.537 4.849 5.537 3.017 0 4.848-2.161 4.848-5.537 0-3.391-1.845-5.53-4.848-5.53zm0 1.216c2.161 0 3.494 1.67 3.494 4.314 0 2.622-1.325 4.321-3.493 4.321-2.198 0-3.494-1.699-3.494-4.321 0-2.644 1.34-4.314 3.494-4.314zM62.116 106l3.897-10.569h-1.385l-3.105 8.862h-.117l-3.106-8.862h-1.384L60.812 106h1.303zm6.828 0V95.431h-1.318V106h1.318zm2.455-10.569V106h3.626c3.142 0 4.988-1.956 4.988-5.288 0-3.325-1.853-5.28-4.988-5.28h-3.626zm1.319 1.187h2.219c2.344 0 3.728 1.523 3.728 4.109 0 2.578-1.37 4.086-3.728 4.086h-2.22v-8.195zm13.932 5.727v-1.194h-4.805v1.194h4.805zM91.25 106h1.319V95.431h-1.311l-2.813 2.022v1.391l2.688-1.948h.117V106zm7.612.242c2.585 0 4.065-2.08 4.065-5.713 0-3.596-1.699-5.347-3.977-5.347-2.168 0-3.706 1.516-3.706 3.64 0 2.051 1.457 3.538 3.472 3.538 1.26 0 2.292-.601 2.812-1.626h.117c-.073 2.812-1.047 4.336-2.768 4.336-1.04 0-1.846-.579-2.124-1.531h-1.355c.33 1.663 1.67 2.703 3.464 2.703zm.088-5.025c-1.4 0-2.373-.996-2.373-2.439 0-1.384 1.032-2.439 2.388-2.439 1.354 0 2.387 1.07 2.387 2.483 0 1.399-1.003 2.395-2.402 2.395zm6.322 4.856a.954.954 0 00.952-.952.95.95 0 00-.952-.952.955.955 0 00-.952.952c0 .52.432.952.952.952z" fill="#000"/></g><defs><filter id="filter0_b" x="-80" y="-80" width="519" height="282" filterUnits="userSpaceOnUse" color-interpolation-filters="sRGB"><feFlood flood-opacity="0" result="BackgroundImageFix"/><feGaussianBlur in="BackgroundImage" stdDeviation="40"/><feComposite in2="SourceAlpha" operator="in" result="effect1_backgroundBlur"/><feBlend in="SourceGraphic" in2="effect1_backgroundBlur" result="shape"/></filter></defs></svg>