<svg width="367" height="130" viewBox="0 0 367 130" fill="none" xmlns="http://www.w3.org/2000/svg">
<g filter="url(#filter0_bd)">
<rect x="4" y="4" width="359" height="122" rx="12" fill="white"/>
<path fill-rule="evenodd" clip-rule="evenodd" d="M16 16H351V36H16V16Z" fill="white" fill-opacity="0.01"/>
<path d="M327.102 31H328.194V26.9502C328.194 25.7505 328.899 25.0205 329.991 25.0205C331.082 25.0205 331.603 25.6045 331.603 26.8359V31H332.695V26.5693C332.695 24.9443 331.838 24.0366 330.302 24.0366C329.254 24.0366 328.588 24.481 328.245 25.2363H328.143V24.1572H327.102V31ZM337.426 31.1206C339.375 31.1206 340.581 29.7749 340.581 27.5786C340.581 25.376 339.375 24.0366 337.426 24.0366C335.477 24.0366 334.271 25.376 334.271 27.5786C334.271 29.7749 335.477 31.1206 337.426 31.1206ZM337.426 30.1367C336.131 30.1367 335.401 29.1973 335.401 27.5786C335.401 25.9536 336.131 25.0205 337.426 25.0205C338.721 25.0205 339.451 25.9536 339.451 27.5786C339.451 29.1973 338.721 30.1367 337.426 30.1367ZM350.568 24.1572H349.47L348.125 29.6289H348.023L346.493 24.1572H345.446L343.916 29.6289H343.814L342.469 24.1572H341.364L343.281 31H344.386L345.909 25.7061H346.011L347.541 31H348.651L350.568 24.1572Z" fill="black" fill-opacity="0.05" style="mix-blend-mode:hard-light"/>
<path d="M327.102 31H328.194V26.9502C328.194 25.7505 328.899 25.0205 329.991 25.0205C331.082 25.0205 331.603 25.6045 331.603 26.8359V31H332.695V26.5693C332.695 24.9443 331.838 24.0366 330.302 24.0366C329.254 24.0366 328.588 24.481 328.245 25.2363H328.143V24.1572H327.102V31ZM337.426 31.1206C339.375 31.1206 340.581 29.7749 340.581 27.5786C340.581 25.376 339.375 24.0366 337.426 24.0366C335.477 24.0366 334.271 25.376 334.271 27.5786C334.271 29.7749 335.477 31.1206 337.426 31.1206ZM337.426 30.1367C336.131 30.1367 335.401 29.1973 335.401 27.5786C335.401 25.9536 336.131 25.0205 337.426 25.0205C338.721 25.0205 339.451 25.9536 339.451 27.5786C339.451 29.1973 338.721 30.1367 337.426 30.1367ZM350.568 24.1572H349.47L348.125 29.6289H348.023L346.493 24.1572H345.446L343.916 29.6289H343.814L342.469 24.1572H341.364L343.281 31H344.386L345.909 25.7061H346.011L347.541 31H348.651L350.568 24.1572Z" fill="#3F3F3F" style="mix-blend-mode:color-burn"/>
<path d="M47.856 31.2158C49.8047 31.2158 51.252 30.1304 51.5566 28.4482H50.395C50.103 29.5083 49.1318 30.1621 47.856 30.1621C46.0913 30.1621 44.9868 28.7212 44.9868 26.4233C44.9868 24.1255 46.0913 22.6782 47.8496 22.6782C49.1128 22.6782 50.0903 23.4209 50.395 24.6016H51.5566C51.2837 22.8369 49.7793 21.6245 47.8496 21.6245C45.3613 21.6245 43.8125 23.4653 43.8125 26.4233C43.8125 29.375 45.3677 31.2158 47.856 31.2158ZM57.2403 21.6245C54.6505 21.6245 53.0382 23.4717 53.0382 26.417C53.0382 29.3496 54.6124 31.2158 57.2403 31.2158C59.8555 31.2158 61.4425 29.3433 61.4425 26.417C61.4425 23.478 59.8429 21.6245 57.2403 21.6245ZM57.2403 22.6782C59.1129 22.6782 60.2681 24.1255 60.2681 26.417C60.2681 28.6895 59.1192 30.1621 57.2403 30.1621C55.336 30.1621 54.2125 28.6895 54.2125 26.417C54.2125 24.1255 55.3741 22.6782 57.2403 22.6782ZM66.8024 31L70.1794 21.8403H68.9796L66.2882 29.521H66.1867L63.4953 21.8403H62.2956L65.6725 31H66.8024ZM72.8479 31V21.8403H71.7053V31H72.8479ZM75.1038 21.8403V31H78.2459C80.9691 31 82.5687 29.3052 82.5687 26.417C82.5687 23.5352 80.9627 21.8403 78.2459 21.8403H75.1038ZM76.2464 22.8687H78.1697C80.201 22.8687 81.4007 24.189 81.4007 26.4297C81.4007 28.6641 80.2137 29.9717 78.1697 29.9717H76.2464V22.8687ZM87.6201 28.6069C87.7407 30.1875 89.0801 31.2158 91.0224 31.2158C93.1172 31.2158 94.4438 30.1431 94.4438 28.4609C94.4438 27.1152 93.6821 26.3789 91.7842 25.9028L90.8257 25.6489C89.5625 25.3252 89.061 24.9126 89.061 24.1953C89.061 23.2686 89.8672 22.6592 91.0859 22.6592C92.2285 22.6592 93.0029 23.2178 93.1616 24.1572H94.3105C94.2153 22.6782 92.895 21.6245 91.124 21.6245C89.188 21.6245 87.8867 22.6782 87.8867 24.2334C87.8867 25.5347 88.604 26.2837 90.2607 26.7026L91.435 27.0073C92.6982 27.3247 93.2695 27.8198 93.2695 28.6006C93.2695 29.5083 92.3618 30.1748 91.1304 30.1748C89.8291 30.1748 88.915 29.5654 88.7754 28.6069H87.6201ZM103.581 31V21.8403H102.438V25.8013H97.4107V21.8403H96.2681V31H97.4107V26.8296H102.438V31H103.581ZM106.979 31V21.8403H105.837V31H106.979ZM114.91 29.9717H110.378V26.8232H114.675V25.8076H110.378V22.8687H114.91V21.8403H109.235V31H114.91V29.9717ZM122.46 29.9717H118.042V21.8403H116.899V31H122.46V29.9717ZM124.208 21.8403V31H127.35C130.073 31 131.673 29.3052 131.673 26.417C131.673 23.5352 130.067 21.8403 127.35 21.8403H124.208ZM125.35 22.8687H127.274C129.305 22.8687 130.505 24.189 130.505 26.4297C130.505 28.6641 129.318 29.9717 127.274 29.9717H125.35V22.8687Z" fill="black" fill-opacity="0.05" style="mix-blend-mode:hard-light"/>
<path d="M47.856 31.2158C49.8047 31.2158 51.252 30.1304 51.5566 28.4482H50.395C50.103 29.5083 49.1318 30.1621 47.856 30.1621C46.0913 30.1621 44.9868 28.7212 44.9868 26.4233C44.9868 24.1255 46.0913 22.6782 47.8496 22.6782C49.1128 22.6782 50.0903 23.4209 50.395 24.6016H51.5566C51.2837 22.8369 49.7793 21.6245 47.8496 21.6245C45.3613 21.6245 43.8125 23.4653 43.8125 26.4233C43.8125 29.375 45.3677 31.2158 47.856 31.2158ZM57.2403 21.6245C54.6505 21.6245 53.0382 23.4717 53.0382 26.417C53.0382 29.3496 54.6124 31.2158 57.2403 31.2158C59.8555 31.2158 61.4425 29.3433 61.4425 26.417C61.4425 23.478 59.8429 21.6245 57.2403 21.6245ZM57.2403 22.6782C59.1129 22.6782 60.2681 24.1255 60.2681 26.417C60.2681 28.6895 59.1192 30.1621 57.2403 30.1621C55.336 30.1621 54.2125 28.6895 54.2125 26.417C54.2125 24.1255 55.3741 22.6782 57.2403 22.6782ZM66.8024 31L70.1794 21.8403H68.9796L66.2882 29.521H66.1867L63.4953 21.8403H62.2956L65.6725 31H66.8024ZM72.8479 31V21.8403H71.7053V31H72.8479ZM75.1038 21.8403V31H78.2459C80.9691 31 82.5687 29.3052 82.5687 26.417C82.5687 23.5352 80.9627 21.8403 78.2459 21.8403H75.1038ZM76.2464 22.8687H78.1697C80.201 22.8687 81.4007 24.189 81.4007 26.4297C81.4007 28.6641 80.2137 29.9717 78.1697 29.9717H76.2464V22.8687ZM87.6201 28.6069C87.7407 30.1875 89.0801 31.2158 91.0224 31.2158C93.1172 31.2158 94.4438 30.1431 94.4438 28.4609C94.4438 27.1152 93.6821 26.3789 91.7842 25.9028L90.8257 25.6489C89.5625 25.3252 89.061 24.9126 89.061 24.1953C89.061 23.2686 89.8672 22.6592 91.0859 22.6592C92.2285 22.6592 93.0029 23.2178 93.1616 24.1572H94.3105C94.2153 22.6782 92.895 21.6245 91.124 21.6245C89.188 21.6245 87.8867 22.6782 87.8867 24.2334C87.8867 25.5347 88.604 26.2837 90.2607 26.7026L91.435 27.0073C92.6982 27.3247 93.2695 27.8198 93.2695 28.6006C93.2695 29.5083 92.3618 30.1748 91.1304 30.1748C89.8291 30.1748 88.915 29.5654 88.7754 28.6069H87.6201ZM103.581 31V21.8403H102.438V25.8013H97.4107V21.8403H96.2681V31H97.4107V26.8296H102.438V31H103.581ZM106.979 31V21.8403H105.837V31H106.979ZM114.91 29.9717H110.378V26.8232H114.675V25.8076H110.378V22.8687H114.91V21.8403H109.235V31H114.91V29.9717ZM122.46 29.9717H118.042V21.8403H116.899V31H122.46V29.9717ZM124.208 21.8403V31H127.35C130.073 31 131.673 29.3052 131.673 26.417C131.673 23.5352 130.067 21.8403 127.35 21.8403H124.208ZM125.35 22.8687H127.274C129.305 22.8687 130.505 24.189 130.505 26.4297C130.505 28.6641 129.318 29.9717 127.274 29.9717H125.35V22.8687Z" fill="#3F3F3F" style="mix-blend-mode:color-burn"/>
<rect x="16" y="16" width="20" height="20" rx="5" fill="white"/>
<rect x="16" y="16" width="20" height="20" rx="5" fill="white"/>
<path d="M26.0003 17.8182L18.7275 19.6364V25.0909C18.7275 30.5455 26.0003 34.1818 26.0003 34.1818C26.0003 34.1818 33.273 30.5455 33.273 25.0909V19.6364L26.0003 17.8182Z" fill="#15A3A6"/>
<path fill-rule="evenodd" clip-rule="evenodd" d="M23.2723 25.0909C23.2723 23.5847 24.4933 22.3636 25.9996 22.3636C26.9925 22.3636 27.8616 22.8943 28.3385 23.6875L29.8978 22.752C29.1029 21.4299 27.6545 20.5455 25.9996 20.5455C23.4892 20.5455 21.4541 22.5805 21.4541 25.0909C21.4541 27.6013 23.4892 29.6364 25.9996 29.6364C27.6545 29.6364 29.1029 28.7519 29.8978 27.4299L28.3385 26.4943C27.8616 27.2875 26.9925 27.8182 25.9996 27.8182C24.4933 27.8182 23.2723 26.5971 23.2723 25.0909Z" fill="white"/>
<path d="M22.1157 53V48.8325L25.8218 42.4312H23.749L21.2368 46.9648H21.1123L18.5928 42.4312H16.52L20.2261 48.8325V53H22.1157ZM29.3098 53.1611C31.7048 53.1611 33.1623 51.5938 33.1623 48.9937C33.1623 46.4082 31.6975 44.8408 29.3098 44.8408C26.9294 44.8408 25.4573 46.4155 25.4573 48.9937C25.4573 51.5938 26.9075 53.1611 29.3098 53.1611ZM29.3098 51.6743C28.0427 51.6743 27.3176 50.6929 27.3176 49.001C27.3176 47.3091 28.0427 46.3276 29.3098 46.3276C30.5696 46.3276 31.2947 47.3091 31.2947 49.001C31.2947 50.6929 30.5769 51.6743 29.3098 51.6743ZM41.7261 44.9946H39.9096V49.6602C39.9096 50.8687 39.2651 51.6011 38.0859 51.6011C37.0019 51.6011 36.4966 51.0005 36.4966 49.7554V44.9946H34.6802V50.1948C34.6802 52.0698 35.7055 53.1611 37.456 53.1611C38.6792 53.1611 39.4629 52.6411 39.8511 51.7256H39.9756V53H41.7261V44.9946ZM47.5449 53H49.3613V48.3491C49.3613 47.1772 50.0278 46.3936 51.2216 46.3936C52.2763 46.3936 52.833 47.0234 52.833 48.2612V53H54.6494V47.8364C54.6494 45.9321 53.6093 44.8481 51.8955 44.8481C50.7016 44.8481 49.8447 45.3901 49.4638 46.291H49.332V41.8965H47.5449V53ZM58.7673 53.1318C59.8146 53.1318 60.6936 52.6777 61.1403 51.9014H61.2648V53H63.0153V47.5288C63.0153 45.8369 61.8581 44.8408 59.8 44.8408C57.8957 44.8408 56.57 45.7344 56.4235 47.1333H58.1374C58.3059 46.584 58.8771 46.2837 59.7121 46.2837C60.6936 46.2837 61.2209 46.7305 61.2209 47.5288V48.2173L59.1555 48.3418C57.2072 48.4517 56.1159 49.2939 56.1159 50.7295C56.1159 52.1943 57.2219 53.1318 58.7673 53.1318ZM59.302 51.7329C58.4963 51.7329 57.9177 51.3301 57.9177 50.6416C57.9177 49.9751 58.3937 49.6016 59.4118 49.5356L61.2209 49.4111V50.063C61.2209 51.0151 60.4006 51.7329 59.302 51.7329ZM71.7036 44.9946H69.7846L67.9462 51.2202H67.8217L65.9687 44.9946H64.0205L66.8696 53H68.8691L71.7036 44.9946ZM77.9015 50.8101C77.6379 51.4106 77.0153 51.7476 76.1144 51.7476C74.9206 51.7476 74.1515 50.8979 74.1076 49.543V49.4478H79.7033V48.8691C79.7033 46.3569 78.3337 44.8408 76.0485 44.8408C73.7267 44.8408 72.2839 46.4595 72.2839 49.0303C72.2839 51.5938 73.7048 53.1611 76.0632 53.1611C77.9528 53.1611 79.2931 52.2529 79.6227 50.8101H77.9015ZM76.0412 46.2544C77.1325 46.2544 77.8503 47.0234 77.8869 48.2393H74.1149C74.1955 47.0381 74.9572 46.2544 76.0412 46.2544ZM89.4113 44.8628C88.3127 44.8628 87.3825 45.4121 86.9211 46.3203H86.7965V44.9946H85.0461V55.6587H86.8625V51.7842H86.987C87.3971 52.6338 88.2834 53.1318 89.4333 53.1318C91.4547 53.1318 92.7145 51.5425 92.7145 49.001C92.7145 46.4375 91.4401 44.8628 89.4113 44.8628ZM88.84 51.623C87.6022 51.623 86.8332 50.6196 86.8258 49.001C86.8332 47.3823 87.6095 46.3789 88.8473 46.3789C90.0924 46.3789 90.8468 47.3604 90.8468 49.001C90.8468 50.6416 90.0998 51.623 88.84 51.623ZM97.7553 53.1611C100.15 53.1611 101.608 51.5938 101.608 48.9937C101.608 46.4082 100.143 44.8408 97.7553 44.8408C95.3749 44.8408 93.9027 46.4155 93.9027 48.9937C93.9027 51.5938 95.3529 53.1611 97.7553 53.1611ZM97.7553 51.6743C96.4882 51.6743 95.7631 50.6929 95.7631 49.001C95.7631 47.3091 96.4882 46.3276 97.7553 46.3276C99.015 46.3276 99.7401 47.3091 99.7401 49.001C99.7401 50.6929 99.0224 51.6743 97.7553 51.6743ZM103.016 47.2798C103.016 48.481 103.741 49.1841 105.279 49.5356L106.7 49.8652C107.462 50.041 107.806 50.334 107.806 50.7881C107.806 51.396 107.169 51.8135 106.253 51.8135C105.345 51.8135 104.781 51.4473 104.605 50.854H102.811C102.95 52.2969 104.21 53.1611 106.209 53.1611C108.209 53.1611 109.622 52.1431 109.622 50.6123C109.622 49.4331 108.912 48.7812 107.381 48.4297L105.967 48.1147C105.162 47.9243 104.781 47.6387 104.781 47.1846C104.781 46.5913 105.403 46.1885 106.231 46.1885C107.081 46.1885 107.615 46.5547 107.747 47.1187H109.454C109.322 45.6758 108.128 44.8408 106.224 44.8408C104.334 44.8408 103.016 45.8442 103.016 47.2798ZM110.891 47.2798C110.891 48.481 111.616 49.1841 113.154 49.5356L114.575 49.8652C115.337 50.041 115.681 50.334 115.681 50.7881C115.681 51.396 115.044 51.8135 114.128 51.8135C113.22 51.8135 112.656 51.4473 112.48 50.854H110.686C110.825 52.2969 112.085 53.1611 114.084 53.1611C116.084 53.1611 117.497 52.1431 117.497 50.6123C117.497 49.4331 116.787 48.7812 115.256 48.4297L113.843 48.1147C113.037 47.9243 112.656 47.6387 112.656 47.1846C112.656 46.5913 113.279 46.1885 114.106 46.1885C114.956 46.1885 115.491 46.5547 115.622 47.1187H117.329C117.197 45.6758 116.003 44.8408 114.099 44.8408C112.209 44.8408 110.891 45.8442 110.891 47.2798ZM120.019 43.6543C120.619 43.6543 121.11 43.1782 121.11 42.5776C121.11 41.9844 120.619 41.501 120.019 41.501C119.425 41.501 118.935 41.9844 118.935 42.5776C118.935 43.1782 119.425 43.6543 120.019 43.6543ZM119.118 53H120.927V44.9946H119.118V53ZM127.396 53.1318C129.417 53.1318 130.684 51.5425 130.684 49.001C130.684 46.4448 129.425 44.8628 127.396 44.8628C126.297 44.8628 125.374 45.3975 124.957 46.269H124.832V41.8965H123.016V53H124.766V51.7329H124.891C125.345 52.6118 126.275 53.1318 127.396 53.1318ZM126.825 46.3789C128.062 46.3789 128.817 47.3677 128.817 49.001C128.817 50.6343 128.07 51.623 126.825 51.623C125.579 51.623 124.803 50.6196 124.803 49.001C124.803 47.3823 125.587 46.3789 126.825 46.3789ZM132.341 53H134.158V41.8965H132.341V53ZM137.097 55.9004C138.891 55.9004 139.748 55.2485 140.429 53.2783L143.322 44.9946H141.403L139.535 51.2788H139.411L137.536 44.9946H135.544L138.408 53.0293L138.312 53.4028C138.078 54.1572 137.646 54.4502 136.877 54.4502C136.752 54.4502 136.481 54.4429 136.379 54.4282V55.8711C136.496 55.8931 136.987 55.9004 137.097 55.9004ZM152.862 53.1318C154.883 53.1318 156.15 51.5425 156.15 49.001C156.15 46.4448 154.89 44.8628 152.862 44.8628C151.763 44.8628 150.84 45.3975 150.423 46.269H150.298V41.8965H148.482V53H150.232V51.7329H150.357C150.811 52.6118 151.741 53.1318 152.862 53.1318ZM152.29 46.3789C153.528 46.3789 154.283 47.3677 154.283 49.001C154.283 50.6343 153.535 51.623 152.29 51.623C151.045 51.623 150.269 50.6196 150.269 49.001C150.269 47.3823 151.053 46.3789 152.29 46.3789ZM162.956 50.8101C162.692 51.4106 162.07 51.7476 161.169 51.7476C159.975 51.7476 159.206 50.8979 159.162 49.543V49.4478H164.758V48.8691C164.758 46.3569 163.388 44.8408 161.103 44.8408C158.781 44.8408 157.338 46.4595 157.338 49.0303C157.338 51.5938 158.759 53.1611 161.118 53.1611C163.007 53.1611 164.348 52.2529 164.677 50.8101H162.956ZM161.096 46.2544C162.187 46.2544 162.905 47.0234 162.941 48.2393H159.169C159.25 47.0381 160.012 46.2544 161.096 46.2544ZM171.564 50.8101C171.3 51.4106 170.678 51.7476 169.777 51.7476C168.583 51.7476 167.814 50.8979 167.77 49.543V49.4478H173.366V48.8691C173.366 46.3569 171.996 44.8408 169.711 44.8408C167.389 44.8408 165.946 46.4595 165.946 49.0303C165.946 51.5938 167.367 53.1611 169.725 53.1611C171.615 53.1611 172.955 52.2529 173.285 50.8101H171.564ZM169.703 46.2544C170.795 46.2544 171.512 47.0234 171.549 48.2393H167.777C167.858 47.0381 168.619 46.2544 169.703 46.2544ZM174.949 53H176.766V48.3345C176.766 47.1333 177.447 46.3789 178.531 46.3789C179.637 46.3789 180.149 47.0015 180.149 48.2466V53H181.966V47.8218C181.966 45.9175 180.992 44.8408 179.205 44.8408C178.011 44.8408 177.205 45.3828 176.824 46.2764H176.7V44.9946H174.949V53ZM192.86 50.8101C192.597 51.4106 191.974 51.7476 191.073 51.7476C189.879 51.7476 189.11 50.8979 189.066 49.543V49.4478H194.662V48.8691C194.662 46.3569 193.292 44.8408 191.007 44.8408C188.686 44.8408 187.243 46.4595 187.243 49.0303C187.243 51.5938 188.664 53.1611 191.022 53.1611C192.912 53.1611 194.252 52.2529 194.582 50.8101H192.86ZM191 46.2544C192.091 46.2544 192.809 47.0234 192.846 48.2393H189.074C189.154 47.0381 189.916 46.2544 191 46.2544ZM199.036 50.2314L200.677 53.0146H202.728L200.113 48.9644L202.699 45.0093H200.699L199.117 47.7852H198.992L197.403 45.0093H195.294L197.908 49.0449L195.316 53.0146H197.279L198.912 50.2314H199.036ZM208.457 44.8628C207.358 44.8628 206.428 45.4121 205.967 46.3203H205.842V44.9946H204.092V55.6587H205.908V51.7842H206.033C206.443 52.6338 207.329 53.1318 208.479 53.1318C210.5 53.1318 211.76 51.5425 211.76 49.001C211.76 46.4375 210.486 44.8628 208.457 44.8628ZM207.886 51.623C206.648 51.623 205.879 50.6196 205.872 49.001C205.879 47.3823 206.655 46.3789 207.893 46.3789C209.138 46.3789 209.893 47.3604 209.893 49.001C209.893 50.6416 209.146 51.623 207.886 51.623ZM216.801 53.1611C219.196 53.1611 220.654 51.5938 220.654 48.9937C220.654 46.4082 219.189 44.8408 216.801 44.8408C214.421 44.8408 212.948 46.4155 212.948 48.9937C212.948 51.5938 214.399 53.1611 216.801 53.1611ZM216.801 51.6743C215.534 51.6743 214.809 50.6929 214.809 49.001C214.809 47.3091 215.534 46.3276 216.801 46.3276C218.061 46.3276 218.786 47.3091 218.786 49.001C218.786 50.6929 218.068 51.6743 216.801 51.6743ZM222.062 47.2798C222.062 48.481 222.787 49.1841 224.325 49.5356L225.746 49.8652C226.507 50.041 226.852 50.334 226.852 50.7881C226.852 51.396 226.214 51.8135 225.299 51.8135C224.391 51.8135 223.827 51.4473 223.651 50.854H221.856C221.996 52.2969 223.255 53.1611 225.255 53.1611C227.254 53.1611 228.668 52.1431 228.668 50.6123C228.668 49.4331 227.958 48.7812 226.427 48.4297L225.013 48.1147C224.208 47.9243 223.827 47.6387 223.827 47.1846C223.827 46.5913 224.449 46.1885 225.277 46.1885C226.126 46.1885 226.661 46.5547 226.793 47.1187H228.499C228.368 45.6758 227.174 44.8408 225.27 44.8408C223.38 44.8408 222.062 45.8442 222.062 47.2798ZM235.488 50.8101C235.225 51.4106 234.602 51.7476 233.701 51.7476C232.508 51.7476 231.738 50.8979 231.695 49.543V49.4478H237.29V48.8691C237.29 46.3569 235.921 44.8408 233.635 44.8408C231.314 44.8408 229.871 46.4595 229.871 49.0303C229.871 51.5938 231.292 53.1611 233.65 53.1611C235.54 53.1611 236.88 52.2529 237.21 50.8101H235.488ZM233.628 46.2544C234.719 46.2544 235.437 47.0234 235.474 48.2393H231.702C231.782 47.0381 232.544 46.2544 233.628 46.2544ZM241.774 53.1318C242.888 53.1318 243.811 52.6118 244.265 51.7329H244.389V53H246.147V41.8965H244.331V46.269H244.206C243.781 45.3901 242.873 44.8628 241.774 44.8628C239.753 44.8628 238.478 46.4595 238.478 48.9937C238.478 51.5352 239.746 53.1318 241.774 53.1318ZM242.338 46.3789C243.583 46.3789 244.352 47.3823 244.352 49.001C244.352 50.627 243.591 51.623 242.338 51.623C241.093 51.623 240.339 50.6416 240.339 49.001C240.339 47.3677 241.101 46.3789 242.338 46.3789ZM252.537 43.0317V45.0459H251.27V46.4595H252.537V50.876C252.537 52.4214 253.269 53.0366 255.108 53.0366C255.459 53.0366 255.796 53.0073 256.06 52.9561V51.5645C255.84 51.5864 255.701 51.6011 255.445 51.6011C254.683 51.6011 254.346 51.2422 254.346 50.4438V46.4595H256.06V45.0459H254.346V43.0317H252.537ZM261.02 53.1611C263.415 53.1611 264.873 51.5938 264.873 48.9937C264.873 46.4082 263.408 44.8408 261.02 44.8408C258.64 44.8408 257.168 46.4155 257.168 48.9937C257.168 51.5938 258.618 53.1611 261.02 53.1611ZM261.02 51.6743C259.753 51.6743 259.028 50.6929 259.028 49.001C259.028 47.3091 259.753 46.3276 261.02 46.3276C262.28 46.3276 263.005 47.3091 263.005 49.001C263.005 50.6929 262.287 51.6743 261.02 51.6743ZM274.822 53.2637C277.261 53.2637 279.048 51.8208 279.298 49.6821H277.437C277.181 50.8687 276.163 51.623 274.822 51.623C273.021 51.623 271.9 50.1216 271.9 47.7119C271.9 45.3096 273.021 43.8081 274.815 43.8081C276.148 43.8081 277.166 44.6357 277.43 45.9102H279.29C279.07 43.7202 277.217 42.1675 274.815 42.1675C271.819 42.1675 269.966 44.2842 269.966 47.7192C269.966 51.1396 271.827 53.2637 274.822 53.2637ZM285.715 42.1675C282.646 42.1675 280.713 44.2988 280.713 47.7119C280.713 51.1177 282.617 53.2637 285.715 53.2637C288.799 53.2637 290.71 51.1177 290.71 47.7119C290.71 44.2988 288.791 42.1675 285.715 42.1675ZM285.715 43.8008C287.59 43.8008 288.784 45.3169 288.784 47.7119C288.784 50.0923 287.598 51.6304 285.715 51.6304C283.811 51.6304 282.646 50.0923 282.646 47.7119C282.646 45.3169 283.84 43.8008 285.715 43.8008ZM297.37 53L301.025 42.4312H299.01L296.374 50.8394H296.249L293.59 42.4312H291.503L295.194 53H297.37ZM304.498 53V42.4312H302.608V53H304.498ZM306.865 42.4312V53H310.828C313.992 53 315.801 51.0591 315.801 47.668C315.801 44.3501 313.97 42.4312 310.828 42.4312H306.865ZM308.755 44.0205H310.579C312.651 44.0205 313.875 45.3682 313.875 47.6973C313.875 50.0776 312.681 51.4106 310.579 51.4106H308.755V44.0205ZM322.431 49.5723V47.9097H317.619V49.5723H322.431ZM327.047 53H328.937V42.4312H327.054L324.293 44.3721V46.1519L326.922 44.2915H327.047V53ZM335.391 53.2563C338.079 53.2563 339.676 51.1543 339.676 47.5874C339.676 44.0864 337.976 42.1675 335.45 42.1675C333.15 42.1675 331.524 43.7129 331.524 45.8735C331.524 47.9023 332.989 49.3818 335.003 49.3818C336.241 49.3818 337.244 48.8105 337.742 47.8071H337.867C337.845 50.29 336.958 51.7109 335.413 51.7109C334.505 51.7109 333.78 51.2129 333.553 50.4072H331.67C331.978 52.1284 333.457 53.2563 335.391 53.2563ZM335.457 47.9243C334.226 47.9243 333.377 47.0601 333.377 45.8149C333.377 44.6211 334.27 43.7056 335.464 43.7056C336.658 43.7056 337.552 44.6357 337.552 45.8516C337.552 47.0527 336.68 47.9243 335.457 47.9243Z" fill="black"/>
<path d="M21.4712 74C23.7197 74 25.0527 72.894 25.0527 71.0337C25.0527 69.6348 24.1372 68.646 22.6943 68.4629V68.3457C23.7124 68.1626 24.5181 67.1665 24.5181 66.0679C24.5181 64.4492 23.3315 63.4312 21.3906 63.4312H17.3477V74H21.4712ZM18.666 64.5957H21.1123C22.4233 64.5957 23.1851 65.2183 23.1851 66.2949C23.1851 67.4155 22.3721 67.9868 20.7754 67.9868H18.666V64.5957ZM18.666 72.8354V69.1221H21.1489C22.8335 69.1221 23.6978 69.7446 23.6978 70.9678C23.6978 72.1909 22.8628 72.8354 21.2734 72.8354H18.666ZM29.0022 74.1392C30.0569 74.1392 30.9211 73.6777 31.4338 72.8354H31.551V74H32.7522V68.5947C32.7522 66.9541 31.6755 65.9653 29.7493 65.9653C28.0647 65.9653 26.8196 66.8003 26.6511 68.0674H27.9255C28.1013 67.4448 28.7605 67.0859 29.7053 67.0859C30.8845 67.0859 31.4924 67.6206 31.4924 68.5947V69.3125L29.2146 69.4517C27.3762 69.5615 26.3362 70.3745 26.3362 71.7881C26.3362 73.231 27.4714 74.1392 29.0022 74.1392ZM29.2366 73.0332C28.321 73.0332 27.6399 72.5645 27.6399 71.7588C27.6399 70.9678 28.1672 70.5503 29.3684 70.4697L31.4924 70.3306V71.0557C31.4924 72.1836 30.5329 73.0332 29.2366 73.0332ZM34.6582 68.2651C34.6582 69.4077 35.332 70.0449 36.8115 70.4038L38.1665 70.7334C39.0088 70.9385 39.4189 71.3047 39.4189 71.8467C39.4189 72.5718 38.6572 73.0771 37.5952 73.0771C36.5845 73.0771 35.9546 72.6523 35.7422 71.9858H34.4458C34.5849 73.2969 35.7934 74.1392 37.5513 74.1392C39.3457 74.1392 40.7153 73.165 40.7153 71.7515C40.7153 70.6162 39.9975 69.9717 38.5107 69.6128L37.2949 69.3198C36.3647 69.0928 35.9253 68.7559 35.9253 68.2139C35.9253 67.5107 36.6577 67.0347 37.5952 67.0347C38.5473 67.0347 39.1626 67.4521 39.331 68.082H40.5762C40.4077 66.7856 39.2578 65.9653 37.6025 65.9653C35.9253 65.9653 34.6582 66.9541 34.6582 68.2651ZM47.6823 71.9565C47.3528 72.6523 46.6643 73.0259 45.6462 73.0259C44.3059 73.0259 43.4343 72.0371 43.3684 70.4771V70.4185H49.0446V69.9351C49.0446 67.4814 47.7483 65.9653 45.6169 65.9653C43.4489 65.9653 42.0573 67.5767 42.0573 70.0596C42.0573 72.5571 43.427 74.1392 45.6169 74.1392C47.3454 74.1392 48.5759 73.3042 48.9421 71.9565H47.6823ZM45.6023 67.0786C46.8547 67.0786 47.6897 68.0015 47.719 69.4004H43.3684C43.4636 68.0015 44.3425 67.0786 45.6023 67.0786ZM53.7046 74.1392C54.7959 74.1392 55.7334 73.6191 56.2314 72.7402H56.3486V74H57.5498V62.9697H56.29V67.3496H56.1801C55.7334 66.4854 54.8032 65.9653 53.7046 65.9653C51.6977 65.9653 50.3867 67.5767 50.3867 70.0522C50.3867 72.5352 51.6831 74.1392 53.7046 74.1392ZM53.9975 67.1006C55.4257 67.1006 56.3193 68.2432 56.3193 70.0522C56.3193 71.876 55.4331 73.0039 53.9975 73.0039C52.5546 73.0039 51.6904 71.8979 51.6904 70.0522C51.6904 68.2139 52.562 67.1006 53.9975 67.1006ZM66.9941 74.1392C69.2426 74.1392 70.6342 72.5864 70.6342 70.0522C70.6342 67.5107 69.2426 65.9653 66.9941 65.9653C64.7455 65.9653 63.3539 67.5107 63.3539 70.0522C63.3539 72.5864 64.7455 74.1392 66.9941 74.1392ZM66.9941 73.0039C65.4999 73.0039 64.6577 71.9199 64.6577 70.0522C64.6577 68.1772 65.4999 67.1006 66.9941 67.1006C68.4882 67.1006 69.3305 68.1772 69.3305 70.0522C69.3305 71.9199 68.4882 73.0039 66.9941 73.0039ZM72.3718 74H73.6315V69.3271C73.6315 67.9429 74.4445 67.1006 75.7043 67.1006C76.964 67.1006 77.5646 67.7744 77.5646 69.1953V74H78.8244V68.8877C78.8244 67.0127 77.8356 65.9653 76.0632 65.9653C74.8547 65.9653 74.0856 66.478 73.6901 67.3496H73.5729V66.1045H72.3718V74ZM85.5587 76.8564C86.9577 76.8564 87.5876 76.3145 88.2614 74.4834L91.3449 66.1045H90.0045L87.8439 72.6011H87.7267L85.5587 66.1045H84.1964L87.1188 74.0073L86.9723 74.4761C86.6427 75.4282 86.2472 75.7725 85.5221 75.7725C85.3463 75.7725 85.1486 75.7651 84.9948 75.7358V76.8125C85.1706 76.8418 85.3903 76.8564 85.5587 76.8564ZM95.7411 74.1392C97.9896 74.1392 99.3812 72.5864 99.3812 70.0522C99.3812 67.5107 97.9896 65.9653 95.7411 65.9653C93.4926 65.9653 92.101 67.5107 92.101 70.0522C92.101 72.5864 93.4926 74.1392 95.7411 74.1392ZM95.7411 73.0039C94.247 73.0039 93.4047 71.9199 93.4047 70.0522C93.4047 68.1772 94.247 67.1006 95.7411 67.1006C97.2353 67.1006 98.0775 68.1772 98.0775 70.0522C98.0775 71.9199 97.2353 73.0039 95.7411 73.0039ZM107.506 66.1045H106.246V70.7773C106.246 72.1616 105.484 72.9893 104.092 72.9893C102.833 72.9893 102.305 72.3301 102.305 70.9092V66.1045H101.046V71.2168C101.046 73.0845 101.968 74.1392 103.741 74.1392C104.949 74.1392 105.792 73.6411 106.187 72.7622H106.304V74H107.506V66.1045ZM109.639 74H110.898V69.1074C110.898 67.9941 111.77 67.1885 112.971 67.1885C113.22 67.1885 113.674 67.2324 113.777 67.2617V66.002C113.616 65.98 113.352 65.9653 113.147 65.9653C112.099 65.9653 111.191 66.5073 110.957 67.2764H110.84V66.1045H109.639V74ZM119.105 74H120.365V69.1074C120.365 67.9941 121.236 67.1885 122.437 67.1885C122.686 67.1885 123.14 67.2324 123.243 67.2617V66.002C123.082 65.98 122.818 65.9653 122.613 65.9653C121.566 65.9653 120.658 66.5073 120.423 67.2764H120.306V66.1045H119.105V74ZM126.775 74.1392C127.83 74.1392 128.694 73.6777 129.207 72.8354H129.324V74H130.525V68.5947C130.525 66.9541 129.448 65.9653 127.522 65.9653C125.838 65.9653 124.592 66.8003 124.424 68.0674H125.698C125.874 67.4448 126.533 67.0859 127.478 67.0859C128.657 67.0859 129.265 67.6206 129.265 68.5947V69.3125L126.987 69.4517C125.149 69.5615 124.109 70.3745 124.109 71.7881C124.109 73.231 125.244 74.1392 126.775 74.1392ZM127.009 73.0332C126.094 73.0332 125.413 72.5645 125.413 71.7588C125.413 70.9678 125.94 70.5503 127.141 70.4697L129.265 70.3306V71.0557C129.265 72.1836 128.306 73.0332 127.009 73.0332ZM132.614 74H133.874V69.3271C133.874 67.9429 134.687 67.1006 135.947 67.1006C137.206 67.1006 137.807 67.7744 137.807 69.1953V74H139.067V68.8877C139.067 67.0127 138.078 65.9653 136.306 65.9653C135.097 65.9653 134.328 66.478 133.932 67.3496H133.815V66.1045H132.614V74ZM144.056 74.1392C145.148 74.1392 146.085 73.6191 146.583 72.7402H146.7V74H147.901V62.9697H146.642V67.3496H146.532C146.085 66.4854 145.155 65.9653 144.056 65.9653C142.049 65.9653 140.738 67.5767 140.738 70.0522C140.738 72.5352 142.035 74.1392 144.056 74.1392ZM144.349 67.1006C145.777 67.1006 146.671 68.2432 146.671 70.0522C146.671 71.876 145.785 73.0039 144.349 73.0039C142.906 73.0039 142.042 71.8979 142.042 70.0522C142.042 68.2139 142.914 67.1006 144.349 67.1006ZM153.352 74.1392C155.601 74.1392 156.992 72.5864 156.992 70.0522C156.992 67.5107 155.601 65.9653 153.352 65.9653C151.104 65.9653 149.712 67.5107 149.712 70.0522C149.712 72.5864 151.104 74.1392 153.352 74.1392ZM153.352 73.0039C151.858 73.0039 151.016 71.9199 151.016 70.0522C151.016 68.1772 151.858 67.1006 153.352 67.1006C154.846 67.1006 155.689 68.1772 155.689 70.0522C155.689 71.9199 154.846 73.0039 153.352 73.0039ZM158.73 74H159.99V69.1074C159.99 67.9941 160.788 67.1006 161.821 67.1006C162.817 67.1006 163.469 67.7012 163.469 68.6387V74H164.729V68.9243C164.729 67.9209 165.461 67.1006 166.56 67.1006C167.673 67.1006 168.222 67.6719 168.222 68.8364V74H169.482V68.5435C169.482 66.8882 168.581 65.9653 166.97 65.9653C165.878 65.9653 164.978 66.5146 164.553 67.3496H164.436C164.069 66.5293 163.322 65.9653 162.253 65.9653C161.198 65.9653 160.407 66.4707 160.048 67.3496H159.931V66.1045H158.73V74ZM177.015 74V63.4312H175.696V74H177.015ZM179.47 63.4312V74H183.095C186.238 74 188.083 72.0444 188.083 68.7119C188.083 65.3867 186.23 63.4312 183.095 63.4312H179.47ZM180.788 64.6177H183.008C185.351 64.6177 186.736 66.1411 186.736 68.7266C186.736 71.3047 185.366 72.8135 183.008 72.8135H180.788V64.6177ZM189.784 68.2651C189.784 69.4077 190.458 70.0449 191.938 70.4038L193.292 70.7334C194.135 70.9385 194.545 71.3047 194.545 71.8467C194.545 72.5718 193.783 73.0771 192.721 73.0771C191.71 73.0771 191.081 72.6523 190.868 71.9858H189.572C189.711 73.2969 190.919 74.1392 192.677 74.1392C194.472 74.1392 195.841 73.165 195.841 71.7515C195.841 70.6162 195.124 69.9717 193.637 69.6128L192.421 69.3198C191.491 69.0928 191.051 68.7559 191.051 68.2139C191.051 67.5107 191.784 67.0347 192.721 67.0347C193.673 67.0347 194.289 67.4521 194.457 68.082H195.702C195.534 66.7856 194.384 65.9653 192.729 65.9653C191.051 65.9653 189.784 66.9541 189.784 68.2651ZM198.377 76.688L199.527 72.5205H198.128L197.432 76.688H198.377ZM206.459 76.8564C207.858 76.8564 208.488 76.3145 209.162 74.4834L212.245 66.1045H210.905L208.744 72.6011H208.627L206.459 66.1045H205.097L208.019 74.0073L207.873 74.4761C207.543 75.4282 207.148 75.7725 206.423 75.7725C206.247 75.7725 206.049 75.7651 205.895 75.7358V76.8125C206.071 76.8418 206.291 76.8564 206.459 76.8564ZM216.642 74.1392C218.89 74.1392 220.282 72.5864 220.282 70.0522C220.282 67.5107 218.89 65.9653 216.642 65.9653C214.393 65.9653 213.001 67.5107 213.001 70.0522C213.001 72.5864 214.393 74.1392 216.642 74.1392ZM216.642 73.0039C215.147 73.0039 214.305 71.9199 214.305 70.0522C214.305 68.1772 215.147 67.1006 216.642 67.1006C218.136 67.1006 218.978 68.1772 218.978 70.0522C218.978 71.9199 218.136 73.0039 216.642 73.0039ZM228.406 66.1045H227.146V70.7773C227.146 72.1616 226.384 72.9893 224.993 72.9893C223.733 72.9893 223.206 72.3301 223.206 70.9092V66.1045H221.946V71.2168C221.946 73.0845 222.869 74.1392 224.641 74.1392C225.85 74.1392 226.692 73.6411 227.088 72.7622H227.205V74H228.406V66.1045ZM234.606 74H235.865V69.3271C235.865 67.9941 236.642 67.1006 238.055 67.1006C239.249 67.1006 239.879 67.7964 239.879 69.1953V74H241.139V68.8877C241.139 67.0347 240.084 65.9653 238.414 65.9653C237.206 65.9653 236.378 66.478 235.983 67.3496H235.865V62.9697H234.606V74ZM245.396 74.1392C246.451 74.1392 247.315 73.6777 247.828 72.8354H247.945V74H249.146V68.5947C249.146 66.9541 248.069 65.9653 246.143 65.9653C244.458 65.9653 243.213 66.8003 243.045 68.0674H244.319C244.495 67.4448 245.154 67.0859 246.099 67.0859C247.278 67.0859 247.886 67.6206 247.886 68.5947V69.3125L245.608 69.4517C243.77 69.5615 242.73 70.3745 242.73 71.7881C242.73 73.231 243.865 74.1392 245.396 74.1392ZM245.63 73.0332C244.715 73.0332 244.034 72.5645 244.034 71.7588C244.034 70.9678 244.561 70.5503 245.762 70.4697L247.886 70.3306V71.0557C247.886 72.1836 246.927 73.0332 245.63 73.0332ZM257.387 66.1045H256.04L253.879 72.6084H253.762L251.601 66.1045H250.254L253.176 74H254.465L257.387 66.1045ZM263.768 71.9565C263.439 72.6523 262.75 73.0259 261.732 73.0259C260.392 73.0259 259.52 72.0371 259.455 70.4771V70.4185H265.131V69.9351C265.131 67.4814 263.834 65.9653 261.703 65.9653C259.535 65.9653 258.143 67.5767 258.143 70.0596C258.143 72.5571 259.513 74.1392 261.703 74.1392C263.432 74.1392 264.662 73.3042 265.028 71.9565H263.768ZM261.688 67.0786C262.941 67.0786 263.776 68.0015 263.805 69.4004H259.455C259.55 68.0015 260.429 67.0786 261.688 67.0786ZM274.788 74.1392C276.787 74.1392 278.098 72.5205 278.098 70.0522C278.098 67.5693 276.794 65.9653 274.788 65.9653C273.704 65.9653 272.744 66.5 272.312 67.3496H272.195V62.9697H270.935V74H272.136V72.7402H272.253C272.751 73.6191 273.689 74.1392 274.788 74.1392ZM274.495 67.1006C275.937 67.1006 276.794 68.2065 276.794 70.0522C276.794 71.8979 275.937 73.0039 274.495 73.0039C273.059 73.0039 272.165 71.876 272.165 70.0522C272.165 68.2285 273.059 67.1006 274.495 67.1006ZM285.065 71.9565C284.735 72.6523 284.047 73.0259 283.029 73.0259C281.689 73.0259 280.817 72.0371 280.751 70.4771V70.4185H286.427V69.9351C286.427 67.4814 285.131 65.9653 283 65.9653C280.832 65.9653 279.44 67.5767 279.44 70.0596C279.44 72.5571 280.81 74.1392 283 74.1392C284.728 74.1392 285.959 73.3042 286.325 71.9565H285.065ZM282.985 67.0786C284.237 67.0786 285.072 68.0015 285.102 69.4004H280.751C280.846 68.0015 281.725 67.0786 282.985 67.0786ZM293.394 71.9565C293.065 72.6523 292.376 73.0259 291.358 73.0259C290.018 73.0259 289.146 72.0371 289.08 70.4771V70.4185H294.757V69.9351C294.757 67.4814 293.46 65.9653 291.329 65.9653C289.161 65.9653 287.769 67.5767 287.769 70.0596C287.769 72.5571 289.139 74.1392 291.329 74.1392C293.057 74.1392 294.288 73.3042 294.654 71.9565H293.394ZM291.314 67.0786C292.567 67.0786 293.402 68.0015 293.431 69.4004H289.08C289.176 68.0015 290.055 67.0786 291.314 67.0786ZM296.494 74H297.754V69.3271C297.754 67.9429 298.567 67.1006 299.827 67.1006C301.087 67.1006 301.687 67.7744 301.687 69.1953V74H302.947V68.8877C302.947 67.0127 301.958 65.9653 300.186 65.9653C298.977 65.9653 298.208 66.478 297.813 67.3496H297.695V66.1045H296.494V74ZM309.007 74H310.267V69.3271C310.267 67.9429 311.08 67.1006 312.34 67.1006C313.6 67.1006 314.2 67.7744 314.2 69.1953V74H315.46V68.8877C315.46 67.0127 314.471 65.9653 312.699 65.9653C311.49 65.9653 310.721 66.478 310.326 67.3496H310.209V66.1045H309.007V74ZM322.757 71.9565C322.427 72.6523 321.739 73.0259 320.721 73.0259C319.38 73.0259 318.509 72.0371 318.443 70.4771V70.4185H324.119V69.9351C324.119 67.4814 322.823 65.9653 320.691 65.9653C318.523 65.9653 317.132 67.5767 317.132 70.0596C317.132 72.5571 318.501 74.1392 320.691 74.1392C322.42 74.1392 323.65 73.3042 324.016 71.9565H322.757ZM320.677 67.0786C321.929 67.0786 322.764 68.0015 322.793 69.4004H318.443C318.538 68.0015 319.417 67.0786 320.677 67.0786ZM328.054 74.1392C329.108 74.1392 329.973 73.6777 330.485 72.8354H330.603V74H331.804V68.5947C331.804 66.9541 330.727 65.9653 328.801 65.9653C327.116 65.9653 325.871 66.8003 325.703 68.0674H326.977C327.153 67.4448 327.812 67.0859 328.757 67.0859C329.936 67.0859 330.544 67.6206 330.544 68.5947V69.3125L328.266 69.4517C326.428 69.5615 325.388 70.3745 325.388 71.7881C325.388 73.231 326.523 74.1392 328.054 74.1392ZM328.288 73.0332C327.373 73.0332 326.691 72.5645 326.691 71.7588C326.691 70.9678 327.219 70.5503 328.42 70.4697L330.544 70.3306V71.0557C330.544 72.1836 329.585 73.0332 328.288 73.0332ZM333.893 74H335.153V69.1074C335.153 67.9941 336.024 67.1885 337.225 67.1885C337.474 67.1885 337.929 67.2324 338.031 67.2617V66.002C337.87 65.98 337.606 65.9653 337.401 65.9653C336.354 65.9653 335.446 66.5073 335.211 67.2764H335.094V66.1045H333.893V74ZM17.0034 86.2651C17.0034 87.4077 17.6772 88.0449 19.1567 88.4038L20.5117 88.7334C21.354 88.9385 21.7642 89.3047 21.7642 89.8467C21.7642 90.5718 21.0024 91.0771 19.9404 91.0771C18.9297 91.0771 18.2998 90.6523 18.0874 89.9858H16.791C16.9302 91.2969 18.1387 92.1392 19.8965 92.1392C21.6909 92.1392 23.0605 91.165 23.0605 89.7515C23.0605 88.6162 22.3428 87.9717 20.856 87.6128L19.6401 87.3198C18.71 87.0928 18.2705 86.7559 18.2705 86.2139C18.2705 85.5107 19.0029 85.0347 19.9404 85.0347C20.8926 85.0347 21.5078 85.4521 21.6763 86.082H22.9214C22.7529 84.7856 21.603 83.9653 19.9478 83.9653C18.2705 83.9653 17.0034 84.9541 17.0034 86.2651ZM28.0427 92.1392C30.2913 92.1392 31.6829 90.5864 31.6829 88.0522C31.6829 85.5107 30.2913 83.9653 28.0427 83.9653C25.7942 83.9653 24.4026 85.5107 24.4026 88.0522C24.4026 90.5864 25.7942 92.1392 28.0427 92.1392ZM28.0427 91.0039C26.5486 91.0039 25.7063 89.9199 25.7063 88.0522C25.7063 86.1772 26.5486 85.1006 28.0427 85.1006C29.5369 85.1006 30.3791 86.1772 30.3791 88.0522C30.3791 89.9199 29.5369 91.0039 28.0427 91.0039ZM33.4204 92H34.6802V87.1074C34.6802 85.9941 35.4785 85.1006 36.5112 85.1006C37.5073 85.1006 38.1592 85.7012 38.1592 86.6387V92H39.4189V86.9243C39.4189 85.9209 40.1513 85.1006 41.25 85.1006C42.3633 85.1006 42.9126 85.6719 42.9126 86.8364V92H44.1723V86.5435C44.1723 84.8882 43.2715 83.9653 41.6601 83.9653C40.5688 83.9653 39.6679 84.5146 39.2431 85.3496H39.126C38.7597 84.5293 38.0127 83.9653 36.9433 83.9653C35.8887 83.9653 35.0976 84.4707 34.7388 85.3496H34.6216V84.1045H33.4204V92ZM51.4616 89.9565C51.1321 90.6523 50.4436 91.0259 49.4255 91.0259C48.0852 91.0259 47.2136 90.0371 47.1477 88.4771V88.4185H52.8239V87.9351C52.8239 85.4814 51.5276 83.9653 49.3962 83.9653C47.2282 83.9653 45.8366 85.5767 45.8366 88.0596C45.8366 90.5571 47.2063 92.1392 49.3962 92.1392C51.1247 92.1392 52.3552 91.3042 52.7214 89.9565H51.4616ZM49.3816 85.0786C50.634 85.0786 51.469 86.0015 51.4983 87.4004H47.1477C47.2429 86.0015 48.1218 85.0786 49.3816 85.0786ZM57.8061 92.1392C60.0546 92.1392 61.4463 90.5864 61.4463 88.0522C61.4463 85.5107 60.0546 83.9653 57.8061 83.9653C55.5576 83.9653 54.166 85.5107 54.166 88.0522C54.166 90.5864 55.5576 92.1392 57.8061 92.1392ZM57.8061 91.0039C56.312 91.0039 55.4697 89.9199 55.4697 88.0522C55.4697 86.1772 56.312 85.1006 57.8061 85.1006C59.3003 85.1006 60.1425 86.1772 60.1425 88.0522C60.1425 89.9199 59.3003 91.0039 57.8061 91.0039ZM63.1838 92H64.4436V87.3271C64.4436 85.9429 65.2565 85.1006 66.5163 85.1006C67.7761 85.1006 68.3767 85.7744 68.3767 87.1953V92H69.6364V86.8877C69.6364 85.0127 68.6477 83.9653 66.8752 83.9653C65.6667 83.9653 64.8977 84.478 64.5021 85.3496H64.385V84.1045H63.1838V92ZM76.933 89.9565C76.6035 90.6523 75.915 91.0259 74.8969 91.0259C73.5566 91.0259 72.685 90.0371 72.6191 88.4771V88.4185H78.2954V87.9351C78.2954 85.4814 76.999 83.9653 74.8676 83.9653C72.6996 83.9653 71.308 85.5767 71.308 88.0596C71.308 90.5571 72.6777 92.1392 74.8676 92.1392C76.5961 92.1392 77.8266 91.3042 78.1928 89.9565H76.933ZM74.853 85.0786C76.1054 85.0786 76.9404 86.0015 76.9697 87.4004H72.6191C72.7143 86.0015 73.5932 85.0786 74.853 85.0786ZM84.6855 82.5811C85.1689 82.5811 85.5644 82.1855 85.5644 81.7021C85.5644 81.2188 85.1689 80.8232 84.6855 80.8232C84.2021 80.8232 83.8066 81.2188 83.8066 81.7021C83.8066 82.1855 84.2021 82.5811 84.6855 82.5811ZM84.0556 92H85.3154V84.1045H84.0556V92ZM87.4777 92H88.7375V87.3271C88.7375 85.9429 89.5504 85.1006 90.8102 85.1006C92.07 85.1006 92.6706 85.7744 92.6706 87.1953V92H93.9303V86.8877C93.9303 85.0127 92.9416 83.9653 91.1691 83.9653C89.9606 83.9653 89.1916 84.478 88.7961 85.3496H88.6789V84.1045H87.4777V92ZM100.518 82.061V84.1045H99.2438V85.1592H100.518V89.9492C100.518 91.458 101.17 92.0586 102.796 92.0586C103.045 92.0586 103.287 92.0293 103.536 91.9854V90.9233C103.301 90.9453 103.177 90.9526 102.95 90.9526C102.13 90.9526 101.778 90.5571 101.778 89.627V85.1592H103.536V84.1045H101.778V82.061H100.518ZM105.273 92H106.533V87.3271C106.533 85.9941 107.309 85.1006 108.723 85.1006C109.917 85.1006 110.547 85.7964 110.547 87.1953V92H111.807V86.8877C111.807 85.0347 110.752 83.9653 109.082 83.9653C107.873 83.9653 107.046 84.478 106.65 85.3496H106.533V80.9697H105.273V92ZM119.096 89.9565C118.766 90.6523 118.078 91.0259 117.06 91.0259C115.719 91.0259 114.848 90.0371 114.782 88.4771V88.4185H120.458V87.9351C120.458 85.4814 119.162 83.9653 117.03 83.9653C114.862 83.9653 113.471 85.5767 113.471 88.0596C113.471 90.5571 114.84 92.1392 117.03 92.1392C118.759 92.1392 119.989 91.3042 120.356 89.9565H119.096ZM117.016 85.0786C118.268 85.0786 119.103 86.0015 119.132 87.4004H114.782C114.877 86.0015 115.756 85.0786 117.016 85.0786ZM130.034 83.9653C128.958 83.9653 128.013 84.5146 127.507 85.4229H127.39V84.1045H126.189V94.6367H127.449V90.8135H127.566C127.998 91.6484 128.906 92.1392 130.034 92.1392C132.041 92.1392 133.352 90.5205 133.352 88.0522C133.352 85.5693 132.048 83.9653 130.034 83.9653ZM129.734 91.0039C128.313 91.0039 127.412 89.8613 127.412 88.0522C127.412 86.2358 128.313 85.1006 129.741 85.1006C131.184 85.1006 132.048 86.2065 132.048 88.0522C132.048 89.8979 131.184 91.0039 129.734 91.0039ZM137.287 92.1392C138.342 92.1392 139.206 91.6777 139.719 90.8354H139.836V92H141.037V86.5947C141.037 84.9541 139.96 83.9653 138.034 83.9653C136.349 83.9653 135.104 84.8003 134.936 86.0674H136.21C136.386 85.4448 137.045 85.0859 137.99 85.0859C139.169 85.0859 139.777 85.6206 139.777 86.5947V87.3125L137.499 87.4517C135.661 87.5615 134.621 88.3745 134.621 89.7881C134.621 91.231 135.756 92.1392 137.287 92.1392ZM137.521 91.0332C136.606 91.0332 135.925 90.5645 135.925 89.7588C135.925 88.9678 136.452 88.5503 137.653 88.4697L139.777 88.3306V89.0557C139.777 90.1836 138.818 91.0332 137.521 91.0332ZM142.943 86.2651C142.943 87.4077 143.617 88.0449 145.096 88.4038L146.451 88.7334C147.294 88.9385 147.704 89.3047 147.704 89.8467C147.704 90.5718 146.942 91.0771 145.88 91.0771C144.869 91.0771 144.239 90.6523 144.027 89.9858H142.731C142.87 91.2969 144.078 92.1392 145.836 92.1392C147.63 92.1392 149 91.165 149 89.7515C149 88.6162 148.282 87.9717 146.795 87.6128L145.58 87.3198C144.649 87.0928 144.21 86.7559 144.21 86.2139C144.21 85.5107 144.942 85.0347 145.88 85.0347C146.832 85.0347 147.447 85.4521 147.616 86.082H148.861C148.692 84.7856 147.543 83.9653 145.887 83.9653C144.21 83.9653 142.943 84.9541 142.943 86.2651ZM151.192 82.061V84.1045H149.917V85.1592H151.192V89.9492C151.192 91.458 151.844 92.0586 153.47 92.0586C153.719 92.0586 153.96 92.0293 154.209 91.9854V90.9233C153.975 90.9453 153.85 90.9526 153.623 90.9526C152.803 90.9526 152.451 90.5571 152.451 89.627V85.1592H154.209V84.1045H152.451V82.061H151.192ZM162.387 92H163.705V81.4312H162.394L159.581 83.4526V84.8442L162.269 82.896H162.387V92ZM171.448 92H172.737V89.8101H174.239V88.6309H172.737V81.4312H170.826C169.346 83.6357 167.728 86.2139 166.299 88.6089V89.8101H171.448V92ZM167.647 88.5503C168.797 86.6094 170.181 84.4268 171.368 82.6543H171.456V88.6382H167.647V88.5503ZM182.958 92.1392C184.049 92.1392 184.987 91.6191 185.485 90.7402H185.602V92H186.803V80.9697H185.543V85.3496H185.434C184.987 84.4854 184.057 83.9653 182.958 83.9653C180.951 83.9653 179.64 85.5767 179.64 88.0522C179.64 90.5352 180.937 92.1392 182.958 92.1392ZM183.251 85.1006C184.679 85.1006 185.573 86.2432 185.573 88.0522C185.573 89.876 184.687 91.0039 183.251 91.0039C181.808 91.0039 180.944 89.8979 180.944 88.0522C180.944 86.2139 181.815 85.1006 183.251 85.1006ZM191.207 92.1392C192.261 92.1392 193.126 91.6777 193.638 90.8354H193.756V92H194.957V86.5947C194.957 84.9541 193.88 83.9653 191.954 83.9653C190.269 83.9653 189.024 84.8003 188.856 86.0674H190.13C190.306 85.4448 190.965 85.0859 191.91 85.0859C193.089 85.0859 193.697 85.6206 193.697 86.5947V87.3125L191.419 87.4517C189.581 87.5615 188.541 88.3745 188.541 89.7881C188.541 91.231 189.676 92.1392 191.207 92.1392ZM191.441 91.0332C190.526 91.0332 189.844 90.5645 189.844 89.7588C189.844 88.9678 190.372 88.5503 191.573 88.4697L193.697 88.3306V89.0557C193.697 90.1836 192.738 91.0332 191.441 91.0332ZM197.427 94.8564C198.826 94.8564 199.456 94.3145 200.129 92.4834L203.213 84.1045H201.873L199.712 90.6011H199.595L197.427 84.1045H196.064L198.987 92.0073L198.84 92.4761C198.511 93.4282 198.115 93.7725 197.39 93.7725C197.214 93.7725 197.017 93.7651 196.863 93.7358V94.8125C197.039 94.8418 197.258 94.8564 197.427 94.8564ZM204.255 86.2651C204.255 87.4077 204.928 88.0449 206.408 88.4038L207.763 88.7334C208.605 88.9385 209.015 89.3047 209.015 89.8467C209.015 90.5718 208.254 91.0771 207.192 91.0771C206.181 91.0771 205.551 90.6523 205.339 89.9858H204.042C204.181 91.2969 205.39 92.1392 207.148 92.1392C208.942 92.1392 210.312 91.165 210.312 89.7515C210.312 88.6162 209.594 87.9717 208.107 87.6128L206.891 87.3198C205.961 87.0928 205.522 86.7559 205.522 86.2139C205.522 85.5107 206.254 85.0347 207.192 85.0347C208.144 85.0347 208.759 85.4521 208.927 86.082H210.173C210.004 84.7856 208.854 83.9653 207.199 83.9653C205.522 83.9653 204.255 84.9541 204.255 86.2651ZM225.974 84.1045H224.707L223.155 90.418H223.037L221.272 84.1045H220.064L218.299 90.418H218.181L216.629 84.1045H215.354L217.566 92H218.841L220.598 85.8916H220.716L222.481 92H223.762L225.974 84.1045ZM227.492 92H228.752V87.3271C228.752 85.9941 229.528 85.1006 230.942 85.1006C232.136 85.1006 232.766 85.7964 232.766 87.1953V92H234.025V86.8877C234.025 85.0347 232.971 83.9653 231.301 83.9653C230.092 83.9653 229.265 84.478 228.869 85.3496H228.752V80.9697H227.492V92ZM239.33 92.1392C241.578 92.1392 242.97 90.5864 242.97 88.0522C242.97 85.5107 241.578 83.9653 239.33 83.9653C237.081 83.9653 235.69 85.5107 235.69 88.0522C235.69 90.5864 237.081 92.1392 239.33 92.1392ZM239.33 91.0039C237.836 91.0039 236.993 89.9199 236.993 88.0522C236.993 86.1772 237.836 85.1006 239.33 85.1006C240.824 85.1006 241.666 86.1772 241.666 88.0522C241.666 89.9199 240.824 91.0039 239.33 91.0039ZM249.228 82.061V84.1045H247.954V85.1592H249.228V89.9492C249.228 91.458 249.88 92.0586 251.506 92.0586C251.755 92.0586 251.997 92.0293 252.246 91.9854V90.9233C252.011 90.9453 251.887 90.9526 251.66 90.9526C250.84 90.9526 250.488 90.5571 250.488 89.627V85.1592H252.246V84.1045H250.488V82.061H249.228ZM259.022 89.9565C258.693 90.6523 258.004 91.0259 256.986 91.0259C255.646 91.0259 254.774 90.0371 254.708 88.4771V88.4185H260.385V87.9351C260.385 85.4814 259.088 83.9653 256.957 83.9653C254.789 83.9653 253.397 85.5767 253.397 88.0596C253.397 90.5571 254.767 92.1392 256.957 92.1392C258.685 92.1392 259.916 91.3042 260.282 89.9565H259.022ZM256.942 85.0786C258.195 85.0786 259.03 86.0015 259.059 87.4004H254.708C254.804 86.0015 255.683 85.0786 256.942 85.0786ZM261.939 86.2651C261.939 87.4077 262.613 88.0449 264.092 88.4038L265.447 88.7334C266.29 88.9385 266.7 89.3047 266.7 89.8467C266.7 90.5718 265.938 91.0771 264.876 91.0771C263.865 91.0771 263.236 90.6523 263.023 89.9858H261.727C261.866 91.2969 263.074 92.1392 264.832 92.1392C266.627 92.1392 267.996 91.165 267.996 89.7515C267.996 88.6162 267.278 87.9717 265.792 87.6128L264.576 87.3198C263.646 87.0928 263.206 86.7559 263.206 86.2139C263.206 85.5107 263.939 85.0347 264.876 85.0347C265.828 85.0347 266.444 85.4521 266.612 86.082H267.857C267.689 84.7856 266.539 83.9653 264.883 83.9653C263.206 83.9653 261.939 84.9541 261.939 86.2651ZM270.188 82.061V84.1045H268.913V85.1592H270.188V89.9492C270.188 91.458 270.84 92.0586 272.466 92.0586C272.715 92.0586 272.956 92.0293 273.205 91.9854V90.9233C272.971 90.9453 272.847 90.9526 272.62 90.9526C271.799 90.9526 271.448 90.5571 271.448 89.627V85.1592H273.205V84.1045H271.448V82.061H270.188ZM279.982 89.9565C279.652 90.6523 278.964 91.0259 277.946 91.0259C276.606 91.0259 275.734 90.0371 275.668 88.4771V88.4185H281.344V87.9351C281.344 85.4814 280.048 83.9653 277.917 83.9653C275.749 83.9653 274.357 85.5767 274.357 88.0596C274.357 90.5571 275.727 92.1392 277.917 92.1392C279.645 92.1392 280.876 91.3042 281.242 89.9565H279.982ZM277.902 85.0786C279.154 85.0786 279.989 86.0015 280.019 87.4004H275.668C275.763 86.0015 276.642 85.0786 277.902 85.0786ZM286.004 92.1392C287.096 92.1392 288.033 91.6191 288.531 90.7402H288.648V92H289.849V80.9697H288.59V85.3496H288.48C288.033 84.4854 287.103 83.9653 286.004 83.9653C283.997 83.9653 282.686 85.5767 282.686 88.0522C282.686 90.5352 283.983 92.1392 286.004 92.1392ZM286.297 85.1006C287.725 85.1006 288.619 86.2432 288.619 88.0522C288.619 89.876 287.733 91.0039 286.297 91.0039C284.854 91.0039 283.99 89.8979 283.99 88.0522C283.99 86.2139 284.862 85.1006 286.297 85.1006ZM299.894 83.9653C298.818 83.9653 297.873 84.5146 297.368 85.4229H297.25V84.1045H296.049V94.6367H297.309V90.8135H297.426C297.858 91.6484 298.766 92.1392 299.894 92.1392C301.901 92.1392 303.212 90.5205 303.212 88.0522C303.212 85.5693 301.909 83.9653 299.894 83.9653ZM299.594 91.0039C298.173 91.0039 297.272 89.8613 297.272 88.0522C297.272 86.2358 298.173 85.1006 299.601 85.1006C301.044 85.1006 301.909 86.2065 301.909 88.0522C301.909 89.8979 301.044 91.0039 299.594 91.0039ZM308.194 92.1392C310.443 92.1392 311.835 90.5864 311.835 88.0522C311.835 85.5107 310.443 83.9653 308.194 83.9653C305.946 83.9653 304.554 85.5107 304.554 88.0522C304.554 90.5864 305.946 92.1392 308.194 92.1392ZM308.194 91.0039C306.7 91.0039 305.858 89.9199 305.858 88.0522C305.858 86.1772 306.7 85.1006 308.194 85.1006C309.689 85.1006 310.531 86.1772 310.531 88.0522C310.531 89.9199 309.689 91.0039 308.194 91.0039ZM313.389 86.2651C313.389 87.4077 314.063 88.0449 315.542 88.4038L316.897 88.7334C317.74 88.9385 318.15 89.3047 318.15 89.8467C318.15 90.5718 317.388 91.0771 316.326 91.0771C315.315 91.0771 314.685 90.6523 314.473 89.9858H313.177C313.316 91.2969 314.524 92.1392 316.282 92.1392C318.077 92.1392 319.446 91.165 319.446 89.7515C319.446 88.6162 318.728 87.9717 317.242 87.6128L316.026 87.3198C315.096 87.0928 314.656 86.7559 314.656 86.2139C314.656 85.5107 315.389 85.0347 316.326 85.0347C317.278 85.0347 317.893 85.4521 318.062 86.082H319.307C319.139 84.7856 317.989 83.9653 316.333 83.9653C314.656 83.9653 313.389 84.9541 313.389 86.2651ZM321.843 82.5811C322.326 82.5811 322.722 82.1855 322.722 81.7021C322.722 81.2188 322.326 80.8232 321.843 80.8232C321.359 80.8232 320.964 81.2188 320.964 81.7021C320.964 82.1855 321.359 82.5811 321.843 82.5811ZM321.213 92H322.473V84.1045H321.213V92ZM325.162 82.061V84.1045H323.888V85.1592H325.162V89.9492C325.162 91.458 325.814 92.0586 327.44 92.0586C327.689 92.0586 327.931 92.0293 328.18 91.9854V90.9233C327.946 90.9453 327.821 90.9526 327.594 90.9526C326.774 90.9526 326.422 90.5571 326.422 89.627V85.1592H328.18V84.1045H326.422V82.061H325.162ZM330.503 82.5811C330.987 82.5811 331.382 82.1855 331.382 81.7021C331.382 81.2188 330.987 80.8232 330.503 80.8232C330.02 80.8232 329.625 81.2188 329.625 81.7021C329.625 82.1855 330.02 82.5811 330.503 82.5811ZM329.874 92H331.133V84.1045H329.874V92ZM339.741 84.1045H338.393L336.233 90.6084H336.116L333.955 84.1045H332.607L335.53 92H336.819L339.741 84.1045ZM346.122 89.9565C345.793 90.6523 345.104 91.0259 344.086 91.0259C342.746 91.0259 341.874 90.0371 341.808 88.4771V88.4185H347.484V87.9351C347.484 85.4814 346.188 83.9653 344.057 83.9653C341.889 83.9653 340.497 85.5767 340.497 88.0596C340.497 90.5571 341.867 92.1392 344.057 92.1392C345.785 92.1392 347.016 91.3042 347.382 89.9565H346.122ZM344.042 85.0786C345.294 85.0786 346.129 86.0015 346.159 87.4004H341.808C341.903 86.0015 342.782 85.0786 344.042 85.0786ZM17.7139 110H18.9736V103.159H20.7827V102.104H18.9736V101.262C18.9736 100.398 19.3545 99.9585 20.2627 99.9585C20.4897 99.9585 20.7021 99.9658 20.856 99.9951V98.9697C20.5923 98.9185 20.314 98.8965 20.0063 98.8965C18.5049 98.8965 17.7139 99.6509 17.7139 101.226V102.104H16.4028V103.159H17.7139V110ZM25.2888 110.139C27.5373 110.139 28.9289 108.586 28.9289 106.052C28.9289 103.511 27.5373 101.965 25.2888 101.965C23.0403 101.965 21.6487 103.511 21.6487 106.052C21.6487 108.586 23.0403 110.139 25.2888 110.139ZM25.2888 109.004C23.7947 109.004 22.9524 107.92 22.9524 106.052C22.9524 104.177 23.7947 103.101 25.2888 103.101C26.7829 103.101 27.6252 104.177 27.6252 106.052C27.6252 107.92 26.7829 109.004 25.2888 109.004ZM30.6665 110H31.9263V105.107C31.9263 103.994 32.7978 103.188 33.999 103.188C34.248 103.188 34.7021 103.232 34.8047 103.262V102.002C34.6435 101.98 34.3799 101.965 34.1748 101.965C33.1274 101.965 32.2192 102.507 31.9848 103.276H31.8677V102.104H30.6665V110ZM44.5493 110.249C46.7978 110.249 48.4677 108.997 48.8193 107.056H47.479C47.1421 108.279 46.0214 109.033 44.5493 109.033C42.5131 109.033 41.2387 107.371 41.2387 104.719C41.2387 102.068 42.5131 100.398 44.542 100.398C45.9995 100.398 47.1274 101.255 47.479 102.617H48.8193C48.5044 100.581 46.7685 99.1821 44.542 99.1821C41.6709 99.1821 39.8838 101.306 39.8838 104.719C39.8838 108.125 41.6782 110.249 44.5493 110.249ZM55.2297 99.1821C52.2414 99.1821 50.3811 101.313 50.3811 104.712C50.3811 108.096 52.1975 110.249 55.2297 110.249C58.2473 110.249 60.0783 108.088 60.0783 104.712C60.0783 101.321 58.2326 99.1821 55.2297 99.1821ZM55.2297 100.398C57.3903 100.398 58.7233 102.068 58.7233 104.712C58.7233 107.334 57.3977 109.033 55.2297 109.033C53.0324 109.033 51.736 107.334 51.736 104.712C51.736 102.068 53.0764 100.398 55.2297 100.398ZM66.1152 110L70.0117 99.4312H68.6274L65.5219 108.293H65.4047L62.2993 99.4312H60.915L64.8115 110H66.1152ZM72.943 110V99.4312H71.6247V110H72.943ZM75.3984 99.4312V110H79.0238C82.1659 110 84.0116 108.044 84.0116 104.712C84.0116 101.387 82.1586 99.4312 79.0238 99.4312H75.3984ZM76.7167 100.618H78.936C81.2797 100.618 82.664 102.141 82.664 104.727C82.664 107.305 81.2944 108.813 78.936 108.813H76.7167V100.618ZM90.6491 106.345V105.151H85.8444V106.345H90.6491ZM95.2504 110H96.5687V99.4312H95.2577L92.4452 101.453V102.844L95.1332 100.896H95.2504V110ZM102.862 110.242C105.447 110.242 106.927 108.162 106.927 104.529C106.927 100.933 105.228 99.1821 102.95 99.1821C100.782 99.1821 99.2438 100.698 99.2438 102.822C99.2438 104.873 100.701 106.36 102.715 106.36C103.975 106.36 105.008 105.759 105.528 104.734H105.645C105.572 107.546 104.598 109.07 102.877 109.07C101.837 109.07 101.031 108.491 100.753 107.539H99.3976C99.7272 109.202 101.068 110.242 102.862 110.242ZM102.95 105.217C101.551 105.217 100.577 104.221 100.577 102.778C100.577 101.394 101.61 100.339 102.964 100.339C104.319 100.339 105.352 101.409 105.352 102.822C105.352 104.221 104.349 105.217 102.95 105.217ZM109.272 110.073C109.8 110.073 110.224 109.641 110.224 109.121C110.224 108.594 109.8 108.169 109.272 108.169C108.752 108.169 108.32 108.594 108.32 109.121C108.32 109.641 108.752 110.073 109.272 110.073Z" fill="black"/>
</g>
<defs>
<filter id="filter0_bd" x="-76" y="-76" width="519" height="282" filterUnits="userSpaceOnUse" color-interpolation-filters="sRGB">
<feFlood flood-opacity="0" result="BackgroundImageFix"/>
<feGaussianBlur in="BackgroundImage" stdDeviation="40"/>
<feComposite in2="SourceAlpha" operator="in" result="effect1_backgroundBlur"/>
<feColorMatrix in="SourceAlpha" type="matrix" values="0 0 0 0 0 0 0 0 0 0 0 0 0 0 0 0 0 0 127 0"/>
<feOffset/>
<feGaussianBlur stdDeviation="2"/>
<feColorMatrix type="matrix" values="0 0 0 0 0 0 0 0 0 0 0 0 0 0 0 0 0 0 0.25 0"/>
<feBlend mode="normal" in2="effect1_backgroundBlur" result="effect2_dropShadow"/>
<feBlend mode="normal" in="SourceGraphic" in2="effect2_dropShadow" result="shape"/>
</filter>
</defs>
</svg>
